<?xml version="1.0" standalone="no"?>
<!DOCTYPE svg PUBLIC "-//W3C//DTD SVG 20010904//EN"
 "http://www.w3.org/TR/2001/REC-SVG-20010904/DTD/svg10.dtd">
<svg version="1.0" xmlns="http://www.w3.org/2000/svg"
 width="299.000000pt" height="450.000000pt" viewBox="0 0 299.000000 450.000000"
 preserveAspectRatio="xMidYMid meet">
<metadata>
Created by potrace 1.10, written by Peter Selinger 2001-2011
</metadata>
<g transform="translate(0.000000,450.000000) scale(0.100000,-0.100000)"
fill="#ff0000" stroke="none">
<path d="M1358 4424 c-4 -3 -4 -19 -1 -35 7 -38 -17 -92 -34 -77 -10 8 -10 14
-2 24 9 11 7 14 -10 14 -18 0 -20 -4 -15 -24 4 -17 0 -28 -15 -38 -30 -21 -18
-43 35 -63 24 -9 44 -19 44 -22 0 -3 -13 -21 -30 -40 -16 -18 -30 -39 -30 -46
1 -13 34 22 60 62 l16 23 84 -40 c114 -54 212 -93 218 -87 7 6 -18 35 -31 35
-6 0 -40 13 -76 29 -36 16 -92 39 -123 51 -57 22 -68 33 -48 45 6 3 10 12 10
18 0 7 -8 2 -18 -11 -16 -20 -21 -22 -46 -12 -28 10 -28 11 -10 26 18 14 18
14 -8 12 -15 -2 -28 2 -30 7 -2 6 18 11 45 13 42 3 47 6 47 27 0 13 -4 26 -9
29 -5 3 -7 14 -5 24 6 21 -9 66 -18 56z"/>
<path d="M1194 4352 c-16 -10 -26 -60 -14 -67 13 -8 13 -45 0 -45 -16 0 -12
-52 5 -64 13 -10 13 -38 5 -216 -15 -297 -18 -338 -24 -349 -3 -5 -2 -20 3
-33 8 -19 10 -20 10 -4 1 13 6 17 21 13 17 -4 20 0 19 26 -1 18 -3 24 -6 15
-4 -17 -23 -26 -23 -10 0 4 5 68 10 142 5 74 12 200 14 280 4 120 8 146 21
148 10 2 15 -4 15 -20 1 -22 1 -22 15 -4 22 29 18 46 -9 46 -14 0 -28 5 -31
10 -3 6 -1 10 5 10 6 0 8 5 5 10 -4 6 -1 18 6 26 10 12 9 13 -6 8 -15 -6 -16
-4 -5 16 6 12 10 30 7 41 -3 10 0 20 7 23 6 2 0 5 -14 5 -14 0 -30 -3 -36 -7z"/>
<path d="M750 4219 c0 -5 4 -7 10 -4 5 3 20 1 32 -5 22 -11 22 -10 4 4 -23 18
-46 21 -46 5z"/>
<path d="M695 4210 c-3 -6 2 -13 12 -16 53 -17 73 -28 103 -55 18 -17 35 -27
39 -24 8 9 -54 61 -101 86 -43 22 -45 22 -53 9z"/>
<path d="M610 4169 c0 -5 -4 -8 -8 -5 -4 2 -14 0 -22 -5 -11 -7 -7 -9 14 -7
27 3 51 28 27 28 -6 0 -11 -5 -11 -11z"/>
<path d="M335 4099 c-38 -17 -89 -32 -112 -32 -22 -1 -39 -5 -37 -8 2 -4 -9
-12 -25 -19 -16 -6 -32 -18 -35 -25 -2 -7 -18 -16 -35 -20 -52 -11 -91 -35
-91 -55 0 -17 8 -15 73 17 39 20 82 45 95 57 12 11 34 22 48 24 32 4 164 61
184 79 20 18 15 17 -65 -18z"/>
<path d="M476 4121 c-4 -5 6 -12 21 -16 69 -15 163 -109 227 -226 36 -65 78
-203 69 -225 -6 -17 -190 -174 -203 -174 -9 0 -7 26 5 67 2 7 0 15 -5 18 -6 4
-10 15 -10 26 0 11 -24 71 -54 133 -43 90 -69 130 -128 194 -40 44 -77 79 -83
77 -5 -1 -18 4 -27 13 -10 8 -24 12 -35 7 -15 -5 -9 -11 29 -31 69 -35 150
-124 199 -217 75 -144 107 -307 64 -331 -10 -6 -30 -21 -44 -34 -23 -21 -24
-22 -3 -12 12 6 26 8 31 5 5 -3 12 0 14 5 4 7 5 6 4 -1 -2 -6 -5 -9 -8 -7 -10
5 -79 -82 -85 -107 -3 -13 -4 -34 -2 -46 4 -22 6 -21 23 14 17 33 17 39 5 47
-8 6 -10 10 -4 10 6 0 30 18 53 39 42 39 55 43 166 56 16 1 54 -1 85 -5 30 -4
60 -4 66 1 11 9 24 2 24 -12 0 -4 -9 -11 -20 -14 -11 -3 -20 -15 -20 -26 0
-11 -7 -19 -17 -19 -12 0 -18 -8 -18 -23 0 -17 6 -24 25 -25 18 -1 21 1 11 7
-7 5 -10 14 -6 20 10 17 36 -6 28 -25 -4 -10 0 -12 11 -8 9 3 13 11 10 16 -4
6 0 14 7 19 10 6 8 9 -8 9 -14 0 -23 6 -23 16 0 18 23 44 40 44 24 0 2 25 -31
37 -47 17 -205 15 -254 -2 -21 -8 -41 -12 -43 -10 -7 7 32 52 68 78 20 14 60
47 88 72 41 37 55 45 66 36 11 -9 15 -6 20 14 4 14 11 25 16 25 14 0 12 -15
-5 -57 -23 -56 -13 -70 31 -43 32 20 38 21 62 9 15 -7 30 -15 35 -17 4 -2 7 3
7 11 0 11 8 15 28 13 32 -4 33 -18 0 -28 -13 -3 -17 -6 -10 -7 7 -1 17 -11 22
-23 l9 -23 7 23 c3 12 9 22 13 22 13 0 26 -15 26 -30 0 -8 15 -18 33 -24 25
-7 31 -13 27 -27 -3 -9 -1 -20 5 -24 7 -4 9 -18 6 -31 -6 -23 3 -32 18 -17 25
26 82 3 74 -30 -2 -11 -9 -12 -28 -5 -14 6 -43 11 -64 12 -37 1 -67 26 -32 26
21 0 21 16 0 28 -18 10 -64 4 -64 -9 0 -5 -7 -9 -15 -9 -8 0 -15 -7 -15 -15 0
-8 -5 -15 -10 -15 -6 0 -13 7 -16 15 -4 9 -19 15 -39 15 -28 0 -32 -3 -28 -20
3 -13 14 -20 29 -20 13 0 46 -9 74 -20 58 -23 74 -25 64 -8 -4 7 -3 8 4 4 7
-4 12 -15 12 -24 0 -10 14 -26 31 -36 23 -14 27 -21 19 -31 -7 -8 -7 -15 -1
-19 5 -4 17 4 25 16 20 28 29 18 16 -17 -8 -21 -8 -30 1 -36 7 -4 9 -17 5 -35
-6 -24 -5 -26 8 -15 12 10 16 9 23 -6 13 -28 10 -96 -4 -100 -8 -3 -13 5 -13
21 0 14 -4 26 -10 26 -5 0 -10 6 -10 14 0 8 -7 16 -15 20 -13 4 -14 -2 -9 -37
4 -23 13 -48 22 -54 22 -18 52 -16 52 2 0 15 10 19 40 16 9 -1 31 14 50 34 19
19 38 35 43 35 5 0 21 9 35 21 17 13 34 18 49 14 17 -4 23 -1 23 11 0 11 5 14
16 10 25 -10 175 24 197 45 11 10 25 15 31 11 7 -4 4 -8 -6 -10 -10 -2 -18 -7
-18 -10 0 -4 55 -7 123 -8 67 0 135 -3 150 -7 19 -5 26 -4 22 3 -11 18 4 30
29 20 16 -6 28 -5 36 3 10 9 11 9 5 -2 -6 -11 -4 -13 9 -8 10 4 22 7 27 7 6 0
7 5 4 10 -3 6 -1 10 4 10 6 0 11 -5 11 -10 0 -6 8 -5 20 2 11 7 20 18 20 25 0
7 8 17 18 22 16 10 16 10 0 11 -10 0 -23 -9 -30 -20 -17 -27 -37 -25 -34 3 5
34 17 60 39 85 11 12 16 22 10 22 -6 0 -23 -14 -38 -31 -14 -17 -28 -29 -31
-26 -9 9 24 64 52 86 15 12 20 21 13 21 -18 -1 -59 -35 -59 -49 0 -5 -5 -13
-11 -17 -8 -5 -9 10 -4 52 11 103 13 138 8 167 -6 32 -23 36 -30 7 -3 -12 -12
-19 -22 -18 -13 3 -16 -7 -15 -59 0 -34 -3 -60 -7 -57 -4 2 -10 0 -13 -5 -3
-5 3 -11 14 -14 16 -4 21 1 26 29 6 32 34 70 34 45 0 -6 -4 -11 -9 -11 -4 0
-6 -11 -3 -25 2 -15 0 -25 -7 -25 -15 0 -14 -29 2 -76 8 -22 17 -60 20 -87 l7
-47 -28 7 c-15 4 -36 7 -47 6 -11 0 -59 4 -106 9 -191 22 -472 -35 -532 -109
-11 -13 -26 -20 -42 -18 -16 1 -25 -3 -25 -11 0 -17 12 -18 30 -1 8 6 6 2 -4
-10 -10 -12 -23 -21 -30 -20 -6 1 -10 -4 -9 -10 2 -7 -2 -13 -7 -13 -18 0 -25
5 -21 15 11 30 28 157 24 175 -6 24 0 25 20 5 13 -12 15 -12 20 4 2 10 1 25
-4 32 -6 10 -9 11 -9 2 0 -7 -7 -13 -15 -13 -17 0 -20 16 -5 25 5 3 10 21 10
38 0 18 9 47 20 65 22 36 25 46 11 37 -19 -11 2 70 30 120 44 79 135 149 178
138 12 -3 21 -1 21 6 0 6 17 19 38 27 20 9 45 21 55 26 20 10 40 2 32 -13 -7
-11 3 -49 14 -49 4 0 5 16 3 35 -4 33 -3 35 27 35 35 0 38 -6 16 -38 -15 -21
-15 -21 7 -13 13 4 24 18 26 30 3 17 10 21 37 21 24 0 35 -5 38 -17 4 -17 5
-17 6 0 1 14 10 17 50 17 54 0 114 -17 105 -31 -3 -5 -1 -9 5 -9 6 0 8 -20 5
-51 -4 -45 -3 -51 11 -45 9 3 20 6 24 6 4 0 5 14 3 31 -4 28 -2 30 16 25 17
-6 19 -3 15 13 -4 17 -9 19 -25 10 -11 -6 -22 -8 -25 -5 -3 3 2 8 11 12 24 9
19 27 -14 49 -17 11 -28 26 -25 33 5 13 -23 52 -39 52 -5 0 -15 8 -22 18 -7 9
-14 13 -14 7 0 -6 -49 -11 -123 -12 -176 -3 -303 -46 -412 -142 -17 -14 -61
-42 -98 -61 -37 -19 -63 -36 -58 -38 6 -2 11 -10 11 -18 0 -18 14 -18 30 1 10
12 16 13 27 3 11 -9 13 -8 11 2 -2 8 5 16 15 18 23 5 22 -21 -3 -43 -15 -14
-20 -15 -20 -4 0 12 -2 12 -9 -1 -13 -19 -24 -103 -23 -173 1 -55 0 -57 -20
-46 -11 6 -23 20 -25 30 -3 10 -13 19 -23 19 -10 0 -20 6 -22 12 -3 9 -9 8
-22 -5 -26 -26 -28 -21 -6 16 11 17 20 35 20 40 0 13 -23 7 -36 -10 -12 -15
-13 -15 -8 -2 4 12 -2 18 -20 23 -14 3 -26 11 -26 16 0 6 -5 10 -11 10 -16 0
-41 29 -34 40 3 5 -5 15 -19 22 -29 12 -38 55 -10 44 9 -3 18 -6 20 -6 2 0 4
-7 4 -16 0 -11 6 -14 20 -9 17 5 20 2 20 -23 0 -26 3 -29 25 -24 14 2 25 9 25
14 0 5 5 6 10 3 6 -3 10 3 10 15 0 12 -4 18 -10 15 -6 -4 -28 2 -49 14 -22 11
-41 18 -44 15 -2 -2 -10 2 -17 11 -7 8 -21 15 -31 15 -11 0 -28 9 -39 20 -20
20 -20 20 -52 -1 -18 -12 -25 -19 -15 -15 10 3 17 0 17 -8 0 -8 14 -19 30 -26
42 -18 37 -30 -13 -30 -50 0 -94 25 -78 44 7 9 7 16 0 23 -8 8 -8 17 2 31 28
38 128 142 138 142 6 0 11 12 11 27 0 14 3 23 6 20 14 -13 44 14 44 40 l0 27
-29 -28 -29 -28 -7 34 c-10 46 -68 159 -94 182 -29 27 -26 11 9 -44 29 -46 80
-159 80 -180 0 -5 -28 -40 -63 -77 -34 -38 -69 -81 -76 -98 l-14 -30 -21 80
c-12 44 -41 117 -65 162 -74 141 -235 283 -265 234z m1442 -311 c22 0 35 -6
39 -17 4 -10 14 -24 22 -31 13 -11 12 -11 -9 0 -35 17 -277 11 -350 -9 -63
-18 -136 -53 -197 -94 -23 -16 -45 -29 -50 -29 -4 0 3 7 15 16 12 8 22 25 22
37 0 17 2 19 10 7 8 -12 10 -12 15 2 4 9 32 29 63 46 100 53 239 84 337 76 28
-2 65 -4 83 -4z m142 -300 c0 -11 -7 -20 -15 -20 -27 0 -18 30 13 39 1 1 2 -8
2 -19z m-801 -227 c1 -17 -24 -16 -38 1 -9 11 -9 16 0 22 8 5 9 3 4 -6 -5 -9
-4 -11 3 -6 7 4 12 15 13 24 0 14 2 13 9 -3 5 -11 9 -26 9 -32z m-82 9 c18
-12 63 -81 55 -86 -4 -2 -31 18 -60 45 -46 43 -50 49 -30 49 13 0 28 -4 35 -8z
m-47 -22 c14 -10 22 -22 18 -25 -7 -8 -57 25 -58 38 0 12 14 8 40 -13z m109
-100 c12 0 15 -39 5 -64 -9 -23 -24 -20 -24 4 0 11 -3 20 -8 20 -9 0 -31 68
-23 76 3 3 13 -4 22 -15 10 -12 22 -21 28 -21z m400 26 c-12 -10 -49 -16 -49
-7 0 5 10 11 23 13 22 4 34 1 26 -6z m-389 -125 c0 -5 -7 -14 -15 -21 -13 -10
-15 -9 -15 9 0 12 6 21 15 21 8 0 15 -4 15 -9z"/>
<path d="M126 3931 c-3 -4 13 -16 35 -26 111 -51 249 -277 266 -437 5 -53 4
-58 -13 -58 -11 0 -35 -13 -54 -30 -19 -16 -41 -29 -48 -30 -7 0 -11 -4 -7 -9
3 -6 18 -5 38 3 17 8 38 11 45 9 6 -3 12 0 12 7 0 6 6 10 13 8 32 -6 71 22 49
36 -5 3 -9 24 -10 47 -3 64 -19 113 -73 219 -52 101 -142 212 -204 250 -36 22
-42 24 -49 11z"/>
<path d="M1937 3905 c-9 -9 -20 -15 -24 -15 -4 1 -9 -4 -11 -12 -2 -9 0 -8 7
2 6 8 11 11 11 6 0 -5 7 -3 15 4 8 6 23 9 33 6 11 -4 36 -7 56 -8 20 -1 39 -5
42 -10 3 -4 14 -8 25 -8 11 0 24 -10 30 -23 7 -15 28 -30 57 -40 57 -21 157
-81 203 -122 40 -36 123 -142 140 -179 10 -20 9 -29 -2 -43 -12 -14 -12 -16 1
-11 11 4 16 -1 17 -16 1 -11 5 -36 8 -53 6 -35 -6 -43 -35 -22 -11 8 -12 12
-2 16 17 7 15 58 -3 73 -18 15 -21 -1 -5 -31 8 -15 7 -19 -5 -19 -8 0 -15 -9
-15 -20 0 -11 5 -20 10 -20 6 0 10 -11 10 -25 0 -23 2 -24 22 -13 13 7 28 20
35 28 13 16 14 62 1 54 -4 -3 -8 20 -8 50 0 31 -4 56 -10 56 -5 0 -10 11 -10
25 0 14 -5 25 -11 25 -5 0 -15 13 -20 30 -6 16 -15 27 -20 24 -5 -3 -6 2 -3
10 3 9 1 16 -6 16 -6 0 -35 24 -63 53 -29 28 -72 61 -97 72 -25 11 -48 24 -51
29 -4 4 -12 5 -18 2 -6 -4 -14 0 -17 8 -3 9 -14 16 -23 16 -21 0 -63 29 -56
40 7 12 -83 47 -141 55 -40 5 -55 2 -67 -10z"/>
<path d="M0 3865 c0 -3 6 -14 13 -25 10 -17 9 -22 -3 -30 -9 -6 -3 -8 22 -6
30 3 35 0 31 -13 -4 -9 -3 -13 1 -9 10 8 34 -15 66 -64 14 -21 28 -38 33 -38
4 0 7 -9 7 -20 0 -11 4 -20 8 -20 16 0 63 -93 113 -225 l19 -50 -5 60 c-6 73
-85 236 -155 323 -58 71 -150 144 -150 117z"/>
<path d="M147 3827 c-6 -16 79 -107 99 -107 30 0 25 30 -12 75 -38 45 -76 59
-87 32z"/>
<path d="M1240 3819 c0 -11 5 -17 10 -14 6 3 10 13 10 21 0 8 -4 14 -10 14 -5
0 -10 -9 -10 -21z"/>
<path d="M1042 3799 c-7 -11 -10 -29 -7 -39 8 -24 -18 -64 -52 -79 -19 -9 -23
-15 -15 -23 25 -25 86 45 81 91 -1 9 1 24 5 33 12 27 2 41 -12 17z"/>
<path d="M1223 3760 c0 -30 2 -43 4 -27 2 15 2 39 0 55 -2 15 -4 2 -4 -28z"/>
<path d="M2130 3775 c0 -18 5 -25 19 -25 11 0 23 -4 26 -10 3 -5 13 -10 20
-10 21 0 116 -58 148 -91 18 -19 37 -29 55 -28 17 1 20 3 10 6 -10 2 -18 10
-18 16 0 22 -101 90 -217 147 l-43 20 0 -25z"/>
<path d="M985 3771 c-8 -25 1 -41 21 -41 11 0 14 6 9 23 -11 34 -22 41 -30 18z"/>
<path d="M1800 3720 l-25 -8 28 -1 c15 -1 27 4 27 9 0 6 -1 10 -2 9 -2 -1 -14
-5 -28 -9z"/>
<path d="M1880 3719 c0 -5 11 -9 25 -9 33 0 33 15 0 16 -14 1 -25 -2 -25 -7z"/>
<path d="M2120 3717 c0 -16 31 -47 47 -47 6 0 40 -15 75 -33 55 -28 63 -35 49
-45 -13 -9 -10 -10 16 -9 28 2 32 5 27 22 -8 25 2 17 -74 58 -99 55 -140 70
-140 54z"/>
<path d="M1248 3707 c-5 -10 -8 -33 -7 -50 0 -31 1 -31 10 -7 5 13 9 36 7 50
-3 21 -4 22 -10 7z"/>
<path d="M1786 3679 c-64 -9 -75 -14 -60 -29 6 -6 39 -5 91 3 73 12 80 12 75
-2 -4 -13 -1 -12 15 2 20 17 22 17 31 2 8 -16 10 -16 15 -1 4 9 13 13 22 10 8
-3 15 -1 15 5 0 6 -6 11 -12 12 -7 0 -40 2 -73 4 -33 2 -87 -1 -119 -6z"/>
<path d="M1582 3650 c4 -24 1 -30 -11 -28 -9 2 -17 9 -17 16 -3 26 -7 26 -13
-3 -4 -20 -1 -35 9 -46 18 -18 41 -14 33 7 -3 8 0 14 7 14 7 0 10 6 7 14 -3 8
-1 17 6 20 9 5 9 7 -1 12 -6 3 -10 10 -6 15 3 5 0 9 -7 9 -7 0 -10 -11 -7 -30z"/>
<path d="M1655 3650 c-18 -7 -19 -8 -3 -15 10 -4 15 -11 12 -16 -3 -5 1 -9 8
-9 10 0 10 -2 -1 -9 -9 -6 -10 -11 -2 -15 6 -4 8 -13 5 -19 -5 -9 -4 -9 6 0
15 14 20 93 6 92 -6 0 -20 -4 -31 -9z"/>
<path d="M687 3634 c-4 -4 -7 -14 -7 -23 0 -11 3 -12 11 -4 6 6 10 16 7 23 -2
6 -7 8 -11 4z"/>
<path d="M1501 3616 c-8 -9 -11 -19 -7 -23 9 -9 29 13 24 27 -2 8 -8 7 -17 -4z"/>
<path d="M1936 3619 c4 -8 0 -9 -15 -4 -26 8 -28 -8 -2 -34 14 -14 22 -16 30
-8 14 14 14 30 0 21 -8 -4 -9 0 -4 15 4 13 2 21 -5 21 -6 0 -8 -5 -4 -11z"/>
<path d="M1443 3592 c-30 -40 -63 -108 -63 -129 0 -16 2 -15 13 3 46 80 64
104 77 104 12 0 12 2 2 8 -7 5 -10 16 -6 25 9 25 0 21 -23 -11z"/>
<path d="M2028 3593 c-10 -2 -18 -11 -18 -19 0 -20 14 -17 35 6 18 20 16 22
-17 13z"/>
<path d="M2161 3574 c-1 -12 6 -25 15 -28 13 -5 14 -3 7 6 -6 7 -13 20 -16 28
-4 10 -6 8 -6 -6z"/>
<path d="M2221 3581 c-18 -11 -25 -51 -10 -51 6 0 13 9 16 20 3 11 12 20 19
20 8 0 14 5 14 10 0 12 -20 13 -39 1z"/>
<path d="M2390 3581 c0 -5 5 -13 10 -16 20 -12 10 -26 -10 -15 -23 12 -27 -2
-6 -19 12 -10 19 -8 35 8 20 20 20 20 -5 36 -13 8 -24 11 -24 6z"/>
<path d="M1498 3558 c-10 -12 -15 -24 -12 -27 3 -3 14 4 24 16 9 12 20 19 24
16 3 -4 6 -1 6 5 0 19 -24 13 -42 -10z"/>
<path d="M761 3546 c-19 -20 -21 -26 -9 -26 19 0 41 25 36 40 -2 6 -14 0 -27
-14z"/>
<path d="M1213 3563 c-7 -2 -9 -11 -6 -20 5 -13 3 -14 -15 -4 -16 8 -22 9 -22
1 0 -6 -7 -18 -15 -26 -8 -8 -12 -21 -9 -29 7 -17 34 -21 34 -5 0 6 5 10 10
10 6 0 10 -7 10 -17 0 -13 4 -11 20 7 16 18 18 26 8 33 -10 7 -10 10 0 14 25
10 11 45 -15 36z"/>
<path d="M1566 3545 c4 -9 -3 -19 -17 -25 -23 -10 -22 -10 5 -6 19 2 36 -3 49
-15 22 -20 39 -17 30 7 -3 8 -8 13 -11 10 -8 -9 -42 14 -42 29 0 8 -4 15 -10
15 -5 0 -7 -7 -4 -15z"/>
<path d="M1890 3540 c6 -11 16 -20 22 -20 6 0 3 9 -7 20 -10 11 -20 20 -22 20
-2 0 1 -9 7 -20z"/>
<path d="M2252 3548 c-7 -7 -12 -20 -12 -30 0 -10 -11 -23 -24 -29 -28 -13
-44 -58 -25 -70 18 -11 39 0 39 21 0 10 7 21 16 24 24 9 54 7 54 -4 0 -5 9
-10 20 -10 21 0 28 -24 10 -35 -13 -8 -3 -25 13 -25 7 0 6 4 -3 11 -11 8 -8 9
15 4 16 -4 32 -7 35 -8 7 -3 10 9 10 47 0 30 -2 33 -25 28 -15 -2 -25 0 -25 7
0 6 -10 11 -23 11 -35 0 -61 23 -54 49 6 23 -3 27 -21 9z"/>
<path d="M1854 3522 c3 -18 2 -31 -3 -27 -5 3 -7 -4 -4 -14 4 -18 6 -18 23 -3
19 16 17 25 -11 62 -8 12 -9 8 -5 -18z"/>
<path d="M2116 3513 c-4 -16 -9 -36 -12 -45 -9 -30 9 -20 35 18 21 30 22 37
10 45 -22 14 -26 11 -33 -18z"/>
<path d="M1240 3522 c0 -5 7 -16 16 -23 14 -12 16 -11 13 5 -4 20 -29 35 -29
18z"/>
<path d="M1940 3515 c0 -8 5 -15 10 -15 6 0 10 7 10 15 0 8 -4 15 -10 15 -5 0
-10 -7 -10 -15z"/>
<path d="M1490 3509 c0 -5 5 -7 12 -3 8 5 9 2 5 -10 -5 -13 -3 -17 7 -13 7 3
19 0 25 -6 8 -8 11 -8 11 2 0 16 -29 40 -47 41 -7 0 -13 -5 -13 -11z"/>
<path d="M706 3494 c-11 -8 -28 -14 -37 -14 -10 0 -20 -3 -23 -8 -2 -4 41 -7
97 -8 79 0 116 -5 165 -22 48 -17 67 -20 82 -12 11 6 20 16 20 23 0 9 -2 9 -8
0 -5 -8 -26 -5 -77 12 -39 13 -95 25 -125 26 -30 2 -60 6 -65 10 -6 4 -19 1
-29 -7z"/>
<path d="M1444 3487 c0 -14 3 -24 7 -21 4 2 10 -4 12 -13 4 -15 5 -14 6 3 0
11 -5 28 -12 38 -12 16 -13 16 -13 -7z"/>
<path d="M1574 3471 c3 -18 6 -46 6 -62 0 -16 4 -29 9 -29 13 0 5 100 -9 113
-10 10 -11 5 -6 -22z"/>
<path d="M1885 3460 c-4 -7 -3 -16 3 -22 6 -6 8 -17 5 -26 -4 -10 -1 -13 8
-10 17 6 19 60 2 65 -6 2 -14 -1 -18 -7z"/>
<path d="M1220 3441 c0 -15 -5 -19 -17 -15 -15 5 -16 4 -3 -5 8 -6 18 -11 21
-11 11 0 18 40 8 46 -5 3 -9 -4 -9 -15z"/>
<path d="M1401 3442 c-16 -31 -13 -45 8 -39 14 3 18 1 14 -10 -3 -8 -12 -12
-21 -8 -9 3 -13 3 -9 -1 4 -4 0 -15 -9 -25 -10 -11 -13 -25 -9 -38 9 -30 23
-26 17 5 -4 22 -2 24 20 19 22 -6 24 -3 26 35 3 38 1 41 -18 35 -20 -6 -21 -5
-10 15 6 12 9 24 7 27 -3 2 -10 -4 -16 -15z"/>
<path d="M1023 3437 c-3 -5 -3 -11 0 -13 6 -7 57 6 57 15 0 9 -51 7 -57 -2z"/>
<path d="M1499 3409 c-19 -15 -30 -31 -26 -35 4 -4 14 2 23 14 17 25 39 30 30
6 -3 -8 -2 -12 4 -9 6 3 10 13 10 20 0 9 6 12 15 9 8 -4 15 -2 15 4 0 22 -38
18 -71 -9z"/>
<path d="M1620 3426 c0 -16 18 -31 27 -22 3 3 -2 12 -11 21 -14 14 -16 14 -16
1z"/>
<path d="M1941 3415 c-1 -11 -7 -28 -15 -37 -11 -16 -15 -16 -34 -2 -27 19
-28 14 -2 -16 l21 -24 20 21 c14 14 19 29 16 49 -2 18 -5 21 -6 9z"/>
<path d="M2130 3420 c-12 -8 -11 -10 8 -10 12 0 22 5 22 10 0 13 -11 13 -30 0z"/>
<path d="M2176 3393 c-3 -10 -7 -38 -11 -63 -4 -37 -1 -50 16 -70 l21 -25 18
23 c19 23 40 29 40 11 0 -6 -9 -13 -20 -16 -20 -5 -38 -48 -26 -60 3 -4 6 3 6
15 0 11 8 22 18 24 21 5 72 -13 72 -25 0 -4 4 -6 9 -2 5 3 17 -5 25 -17 14
-20 16 -21 16 -4 0 11 -6 27 -14 35 -13 14 -10 16 35 16 51 0 57 -5 36 -27 -7
-7 -18 -25 -24 -40 -7 -16 -18 -28 -25 -28 -15 0 -48 20 -34 20 5 0 3 7 -4 15
-7 8 -15 13 -19 11 -4 -3 -13 -1 -20 4 -20 12 -68 -8 -74 -31 -3 -10 -2 -19 3
-19 4 0 10 9 13 19 4 16 12 19 38 16 40 -5 60 -22 40 -34 -11 -7 -10 -13 7
-31 11 -12 26 -19 32 -15 8 5 6 11 -7 20 -10 7 -15 17 -11 21 4 4 15 1 23 -6
14 -12 20 -9 40 16 29 35 55 86 55 107 0 10 7 13 20 10 11 -3 20 0 20 6 0 17
-29 13 -67 -10 -26 -17 -37 -18 -48 -9 -8 6 -18 9 -23 6 -5 -3 -8 6 -6 20 1
14 -4 28 -11 30 -7 3 -16 13 -19 21 -5 13 -4 14 9 3 13 -11 14 -10 9 4 -7 19
-12 19 -43 2 -14 -8 -30 -12 -37 -9 -6 2 -14 -3 -18 -12 -3 -9 -2 -13 4 -10
24 15 7 -6 -21 -26 l-31 -22 7 22 c4 14 2 21 -7 21 -8 0 -9 3 -3 8 12 9 16 72
4 72 -5 0 -6 7 -3 15 4 8 4 15 1 15 -3 0 -8 -8 -11 -17z m139 -112 c16 -32 12
-41 -16 -34 -20 6 -36 44 -24 63 9 14 22 4 40 -29z"/>
<path d="M1730 3390 c0 -5 7 -10 15 -10 8 0 15 5 15 10 0 6 -7 10 -15 10 -8 0
-15 -4 -15 -10z"/>
<path d="M175 3370 c4 -6 -9 -17 -27 -25 -31 -13 -31 -14 -7 -15 27 0 49 16
49 37 0 7 -5 13 -11 13 -5 0 -7 -5 -4 -10z"/>
<path d="M724 3368 c-3 -4 -12 -5 -22 -2 -10 4 -13 3 -6 -3 6 -4 15 -21 19
-38 8 -27 9 -27 12 -8 4 23 35 39 66 34 9 -1 17 4 17 12 0 11 -11 15 -41 14
-22 -1 -42 -4 -45 -9z"/>
<path d="M2363 3373 c-14 -3 -20 -9 -16 -19 3 -7 9 -11 14 -8 5 3 9 -4 9 -16
0 -14 -4 -19 -12 -14 -7 4 -3 -3 10 -15 12 -12 20 -26 17 -32 -4 -5 -1 -9 4
-9 6 0 11 5 11 10 0 6 7 10 15 10 17 0 20 22 6 48 -5 9 -12 25 -15 35 -3 9 -9
16 -13 16 -4 -1 -18 -4 -30 -6z"/>
<path d="M1836 3353 c-4 -9 -1 -21 5 -27 9 -8 10 -6 5 9 -5 17 -3 17 14 -4 26
-31 37 -21 15 13 -20 30 -30 33 -39 9z"/>
<path d="M1960 3351 c0 -10 -7 -21 -15 -25 -10 -3 -15 -19 -15 -45 0 -33 4
-40 25 -45 14 -4 35 -1 47 6 13 7 24 13 25 13 1 0 4 14 8 30 l7 30 -20 -24
c-22 -28 -72 -36 -72 -11 1 8 7 26 15 40 17 30 19 50 5 50 -5 0 -10 -9 -10
-19z"/>
<path d="M650 3340 c-13 -11 -18 -20 -12 -20 7 0 12 -8 12 -17 0 -14 2 -15 9
-4 5 7 14 10 20 6 8 -5 10 2 5 22 -9 37 -7 36 -34 13z"/>
<path d="M1471 3338 c-1 -27 21 -58 42 -58 6 0 2 7 -10 15 -12 8 -24 28 -26
43 l-4 27 -2 -27z"/>
<path d="M1507 3346 c-4 -9 -2 -18 3 -21 6 -4 10 -1 10 5 0 7 7 9 16 6 10 -4
14 -1 12 6 -7 19 -35 21 -41 4z"/>
<path d="M1616 3338 c1 -13 3 -29 3 -35 1 -7 5 -13 11 -13 5 0 7 7 4 15 -4 8
-1 15 5 15 6 0 11 -7 11 -15 0 -22 17 -18 23 5 4 16 0 20 -19 20 -13 0 -23 5
-21 11 1 6 -3 13 -9 16 -6 2 -10 -6 -8 -19z"/>
<path d="M11 3327 c10 -21 10 -30 1 -39 -21 -21 -13 -32 8 -13 11 10 18 20 15
23 -2 3 1 14 7 25 8 16 8 19 -5 14 -8 -3 -20 0 -27 6 -8 9 -8 5 1 -16z"/>
<path d="M1340 3305 c-3 -63 -8 -104 -14 -122 -3 -7 -1 -13 5 -13 6 0 8 -4 4
-9 -3 -5 0 -13 6 -17 9 -5 11 3 6 29 -3 21 -1 39 4 43 6 3 8 17 5 30 -8 29 8
32 38 7 12 -10 8 -4 -7 13 -15 17 -32 44 -37 60 -7 26 -8 24 -10 -21z"/>
<path d="M187 3333 c-13 -13 -7 -21 24 -32 39 -13 39 -13 39 -1 0 6 -7 10 -16
10 -9 0 -12 5 -8 12 5 7 3 8 -6 3 -7 -4 -15 -2 -19 4 -4 6 -10 8 -14 4z"/>
<path d="M2450 3333 c0 -15 18 -35 27 -32 5 2 1 12 -9 22 -10 9 -18 14 -18 10z"/>
<path d="M1725 3303 c7 -31 24 -45 43 -38 8 3 20 5 28 5 8 0 14 4 14 8 0 5
-15 7 -32 6 -30 -2 -47 9 -48 29 0 5 5 5 10 2 6 -3 10 -1 10 4 0 6 -7 11 -16
11 -13 0 -15 -6 -9 -27z"/>
<path d="M2523 3310 c-14 -6 -23 -18 -23 -32 0 -17 3 -19 12 -10 19 19 24 15
52 -33 15 -25 31 -45 37 -45 6 0 7 -4 4 -10 -10 -17 25 -59 60 -70 32 -10 95
-70 95 -89 0 -5 13 -25 30 -46 16 -20 27 -41 24 -46 -3 -5 -1 -16 4 -25 8 -14
10 -11 10 12 0 16 -5 38 -11 49 -11 20 -13 26 -16 46 0 5 -5 8 -9 5 -5 -3 -14
10 -21 29 -7 20 -26 43 -46 55 -19 12 -35 26 -35 31 0 5 -10 9 -23 9 -17 0
-27 9 -37 35 -8 19 -17 35 -22 35 -4 0 -8 6 -8 13 0 8 -9 22 -20 32 -11 10
-20 24 -20 32 0 7 -5 13 -11 13 -5 0 -7 5 -4 10 7 12 7 12 -22 0z"/>
<path d="M517 3303 c-6 -11 21 -73 32 -73 5 0 13 -9 16 -20 7 -23 45 -28 45
-6 0 18 56 47 76 39 7 -3 14 0 14 7 0 6 4 8 10 5 6 -4 7 1 3 11 -4 12 -3 15 5
10 7 -4 12 -2 12 4 0 16 -49 1 -99 -31 -45 -28 -67 -29 -57 -3 9 24 -12 64
-33 64 -11 0 -22 -3 -24 -7z"/>
<path d="M1552 3298 c-10 -13 -8 -18 12 -31 22 -15 24 -15 36 11 11 26 11 26
-8 8 -20 -17 -20 -17 -24 5 -3 19 -5 20 -16 7z"/>
<path d="M1860 3291 c0 -5 11 -11 25 -13 17 -4 25 -1 25 8 0 8 -11 14 -25 14
-14 0 -25 -4 -25 -9z"/>
<path d="M903 3269 c-5 -17 -11 -20 -34 -15 -16 3 -29 1 -29 -4 0 -6 8 -11 18
-12 9 0 22 -2 27 -3 6 -2 15 -4 20 -5 6 -1 -9 -10 -32 -20 -24 -11 -43 -25
-43 -32 0 -9 3 -9 12 0 17 17 38 15 38 -3 0 -14 -11 -19 -37 -16 -14 2 -28
-43 -18 -59 10 -16 -5 -52 -20 -47 -7 3 -27 -9 -45 -28 l-31 -32 26 -7 c20 -5
31 -2 41 11 12 17 13 16 7 -4 -4 -16 -1 -23 10 -23 8 0 20 -6 26 -14 17 -20
-5 -32 -32 -17 -29 14 -79 34 -92 35 -37 5 -107 20 -148 31 -80 23 -197 -7
-257 -65 -32 -32 -56 -40 -47 -16 7 18 -29 42 -85 57 l-43 12 1 59 c1 53 -1
59 -23 64 -12 4 -20 10 -17 15 3 5 -2 6 -10 3 -8 -3 -17 -12 -20 -21 -4 -10
-2 -13 8 -10 8 3 21 0 30 -6 15 -11 15 -20 -1 -105 -13 -74 -14 -95 -4 -105
18 -17 43 18 35 50 -4 14 -2 23 6 23 6 0 8 5 5 10 -8 13 -4 13 38 -5 20 -8 41
-23 46 -34 17 -32 37 -31 108 4 73 35 163 56 163 36 0 -6 13 -11 29 -11 68 0
259 -56 327 -96 45 -26 59 -30 48 -12 -4 6 -3 8 4 4 6 -3 24 -8 41 -10 25 -3
31 0 31 15 0 21 -17 34 -22 18 -2 -7 -22 -2 -55 15 -39 21 -50 31 -46 46 7 26
33 34 33 10 0 -22 36 -47 42 -28 2 6 18 11 35 10 24 0 30 3 26 14 -3 8 0 14 5
14 6 0 17 7 26 15 11 11 21 13 39 6 23 -9 24 -14 21 -68 -2 -46 -1 -53 7 -33
5 13 9 36 7 50 -2 14 5 33 15 43 17 17 17 18 0 35 -24 24 -73 54 -73 45 0 -13
13 -27 34 -39 34 -18 31 -34 -3 -21 -17 6 -31 15 -31 19 0 5 -12 1 -26 -8 -14
-10 -38 -18 -52 -20 -15 -1 -43 -4 -62 -7 -42 -6 -73 1 -64 14 3 5 7 31 10 57
2 26 7 55 10 66 4 12 2 16 -5 12 -6 -4 -11 -2 -11 3 0 6 7 11 16 11 16 0 47
32 71 74 17 28 16 36 -2 30 -8 -4 -15 -1 -15 5 0 6 8 11 18 11 9 0 26 7 36 15
19 14 17 15 -18 15 -30 0 -39 -4 -43 -21z m-153 -341 c0 -17 -23 -3 -26 16 -2
14 0 15 12 5 8 -6 14 -16 14 -21z m95 -28 c3 -5 -1 -10 -9 -10 -8 0 -18 5 -21
10 -3 6 1 10 9 10 8 0 18 -4 21 -10z"/>
<path d="M173 3273 c4 -6 20 -13 37 -15 37 -6 27 8 -14 18 -19 4 -27 3 -23 -3z"/>
<path d="M1614 3268 c-8 -12 14 -28 39 -28 25 0 21 13 -8 27 -17 7 -27 8 -31
1z"/>
<path d="M1493 3255 c-12 -5 -23 -20 -26 -32 -4 -20 -1 -23 17 -17 30 9 38 19
34 40 -2 15 -7 17 -25 9z"/>
<path d="M2479 3243 c-11 -3 -14 -12 -11 -31 3 -23 -8 -38 -66 -94 -38 -38
-76 -68 -83 -68 -12 0 -12 -2 -1 -9 9 -5 23 0 39 15 14 13 31 25 37 25 6 1 16
2 21 3 6 0 21 11 35 24 28 26 80 43 110 35 34 -9 22 12 -12 22 -30 9 -33 13
-31 46 2 35 -3 39 -38 32z"/>
<path d="M420 3188 c-8 -13 -14 -26 -15 -30 0 -3 -10 -18 -22 -31 -17 -20 -19
-27 -7 -31 8 -3 14 1 14 8 0 7 7 19 15 26 9 7 14 19 11 27 -3 7 -2 13 2 13 4
0 13 9 20 20 7 11 9 20 4 20 -4 0 -14 -10 -22 -22z"/>
<path d="M1045 3199 c-8 -12 -5 -16 15 -21 15 -3 20 2 20 22 0 13 -27 13 -35
-1z"/>
<path d="M2157 3186 c-9 -7 -17 -21 -17 -32 0 -17 1 -17 14 1 13 18 13 18 25
-1 10 -16 10 -15 5 11 -4 17 -7 31 -8 32 -1 1 -9 -4 -19 -11z"/>
<path d="M480 3159 c-13 -24 -4 -41 10 -19 10 16 13 40 5 40 -2 0 -9 -9 -15
-21z"/>
<path d="M745 3154 c-25 -20 -26 -22 -8 -18 12 4 28 13 34 20 20 24 5 23 -26
-2z"/>
<path d="M600 3161 c0 -5 7 -14 15 -21 8 -7 15 -16 15 -21 0 -12 -37 -49 -49
-49 -5 0 -12 -7 -15 -15 -4 -11 3 -19 20 -25 33 -13 44 -13 44 0 0 6 -6 10
-14 8 -26 -5 -22 11 9 34 33 25 37 41 17 76 -12 21 -42 31 -42 13z"/>
<path d="M2075 3150 l6 -26 -78 6 c-43 3 -152 5 -243 4 -141 0 -175 -4 -238
-23 -41 -12 -71 -25 -68 -28 3 -4 1 -12 -6 -20 -8 -11 -8 -17 2 -26 10 -9 11
-9 6 1 -10 17 13 45 30 38 8 -3 13 0 11 7 -1 7 10 12 28 12 17 0 33 4 37 9 4
6 14 4 24 -5 16 -12 17 -12 11 4 -4 11 -1 17 9 17 8 0 13 -4 10 -8 -3 -5 20
-7 51 -5 47 3 54 1 49 -13 -3 -8 -6 -18 -6 -21 0 -3 -7 0 -16 8 -13 10 -17 10
-23 0 -6 -10 -14 -10 -28 -2 -16 8 -24 6 -38 -9 -20 -22 -89 -45 -105 -35 -6
3 -10 -3 -10 -14 0 -11 -9 -22 -19 -26 -11 -3 -23 -14 -26 -24 -3 -10 -16 -23
-28 -30 -13 -7 -23 -20 -24 -29 -2 -23 -13 -84 -18 -99 -2 -7 -10 -11 -17 -9
-7 1 -10 1 -5 -1 4 -3 4 -10 0 -16 -4 -6 0 -8 10 -4 14 5 16 2 10 -20 -8 -34
-44 -73 -50 -56 -5 14 -43 -20 -43 -39 0 -6 -3 -9 -6 -5 -9 9 -36 -21 -30 -32
4 -5 -1 -16 -9 -24 -8 -9 -15 -25 -15 -36 0 -12 -6 -21 -15 -21 -9 0 -15 -9
-15 -24 0 -22 -23 -42 -43 -37 -4 1 -14 -12 -21 -29 -7 -17 -15 -27 -19 -23
-4 3 -7 1 -7 -5 0 -7 -10 -12 -22 -12 -13 0 -36 -7 -52 -15 -28 -15 -50 -12
-44 6 2 5 30 22 63 38 35 17 51 29 38 28 -13 -1 -23 -6 -23 -11 0 -5 -3 -7 -6
-3 -3 3 -17 2 -30 -3 -15 -6 -26 -5 -30 2 -4 7 -10 5 -16 -6 -5 -9 -7 -20 -4
-25 3 -5 -1 -14 -9 -21 -19 -16 -19 -34 0 -27 8 4 17 2 20 -4 4 -5 12 -6 18
-2 7 4 19 8 27 10 8 1 16 7 18 12 4 13 42 15 42 2 0 -26 -15 -41 -39 -41 -16
0 -50 -7 -76 -15 -27 -8 -51 -12 -55 -10 -4 2 -16 -2 -26 -9 -12 -9 -35 -13
-64 -10 -61 7 -131 -13 -123 -34 4 -10 2 -13 -5 -8 -6 3 -13 2 -16 -3 -10 -15
22 -21 54 -10 17 6 36 9 43 6 12 -5 141 26 270 65 27 8 53 23 60 35 7 11 40
54 75 94 40 47 66 89 73 116 13 49 53 93 109 118 34 15 43 16 50 6 4 -8 13
-10 19 -7 8 5 7 12 -4 22 -26 26 -38 93 -25 137 25 85 136 166 270 198 62 14
232 18 301 6 34 -6 48 -13 52 -27 6 -23 27 -27 27 -5 0 8 -13 24 -30 37 -31
23 -41 44 -15 35 8 -4 17 -2 20 3 4 6 16 9 28 9 17 -1 18 -2 4 -6 -22 -6 -12
-23 14 -23 16 0 18 3 10 19 -8 14 -6 24 9 41 24 28 26 37 4 19 -13 -10 -17
-10 -25 2 -7 10 -8 7 -4 -11z m-45 -41 c0 -5 -5 -7 -10 -4 -6 4 -17 1 -25 -5
-9 -8 -15 -8 -15 -2 0 11 16 20 38 21 6 1 12 -4 12 -10z"/>
<path d="M530 3135 c-8 -15 -16 -21 -20 -15 -4 7 -12 5 -21 -6 -9 -12 -10 -15
-1 -10 14 9 16 -3 2 -24 -5 -8 -10 -10 -10 -5 -1 6 -8 -3 -16 -19 -13 -23 -18
-26 -26 -15 -7 11 -9 11 -6 1 2 -8 7 -13 11 -13 4 1 13 1 21 1 8 0 23 15 35
33 11 17 21 26 21 20 0 -31 18 -9 23 29 7 52 4 56 -13 23z"/>
<path d="M573 3133 c-15 -32 -10 -41 12 -19 10 10 13 21 8 30 -6 12 -11 9 -20
-11z"/>
<path d="M997 3153 c-4 -3 -7 -16 -6 -27 0 -12 3 -16 5 -10 6 15 44 6 45 -10
0 -6 4 -2 8 9 6 15 3 23 -13 32 -25 14 -30 15 -39 6z"/>
<path d="M10 3140 c0 -5 7 -10 15 -10 8 0 15 5 15 10 0 6 -7 10 -15 10 -8 0
-15 -4 -15 -10z"/>
<path d="M2283 3103 c4 -37 2 -43 -14 -43 -13 0 -17 -5 -12 -17 4 -11 8 -12
11 -5 2 7 10 12 18 12 10 0 12 10 8 43 -8 56 -18 64 -11 10z"/>
<path d="M2557 3119 c-9 -6 -25 -9 -35 -8 -9 2 -30 -4 -47 -14 l-30 -16 28 -1
c15 0 27 6 27 13 1 8 4 7 13 -3 9 -11 33 -15 94 -15 69 0 78 2 60 12 -12 6
-39 15 -60 18 -20 4 -35 11 -31 16 7 11 3 11 -19 -2z"/>
<path d="M1067 3113 c-3 -5 -2 -15 2 -22 5 -7 11 -9 14 -4 3 5 2 15 -2 22 -5
7 -11 9 -14 4z"/>
<path d="M60 3083 c0 -5 -6 -39 -14 -78 -8 -38 -16 -91 -19 -117 -3 -40 -1
-47 17 -52 21 -5 21 -5 1 -21 -19 -14 -18 -15 20 -9 45 7 57 14 36 22 -10 3
-7 9 10 18 l24 14 -25 -3 c-14 -1 -30 -5 -35 -9 -29 -18 -31 10 -10 117 22
109 22 125 4 125 -5 0 -9 -3 -9 -7z"/>
<path d="M958 3077 c-9 -7 -20 -26 -24 -41 -7 -28 -6 -28 14 -11 11 10 18 23
16 30 -3 6 5 17 18 23 14 6 17 11 8 11 -8 0 -23 -5 -32 -12z"/>
<path d="M351 3040 c-13 -23 -21 -43 -18 -46 6 -7 49 66 45 78 -2 5 -14 -9
-27 -32z"/>
<path d="M713 3061 c3 -12 -1 -27 -8 -35 -22 -21 -5 -27 17 -6 22 20 21 51 -1
58 -10 3 -12 -1 -8 -17z"/>
<path d="M1378 3054 c-21 -13 -38 -31 -38 -39 0 -13 3 -13 20 -3 14 9 16 14 7
20 -12 7 -9 8 41 12 8 1 18 9 23 19 14 25 -8 21 -53 -9z"/>
<path d="M2659 3050 c13 -11 33 -20 44 -20 28 0 11 14 -33 28 l-35 12 24 -20z"/>
<path d="M2377 3053 c-12 -11 -8 -25 5 -17 8 5 9 0 5 -15 -3 -15 1 -26 16 -36
27 -19 37 -19 37 0 0 8 -9 15 -20 15 -26 0 -25 17 3 41 l22 18 -31 1 c-17 0
-34 -3 -37 -7z"/>
<path d="M2483 3038 c-3 -7 -1 -8 5 -4 7 4 12 3 12 -3 0 -13 37 -24 52 -15 7
5 3 11 -13 17 -37 15 -48 16 -56 5z"/>
<path d="M2300 3006 c21 -22 34 -18 24 7 -3 9 -14 15 -25 14 -19 -1 -19 -2 1
-21z"/>
<path d="M2049 2987 c-14 -17 -29 -44 -32 -59 -4 -14 -18 -39 -31 -55 -27 -32
-56 -86 -56 -104 0 -7 -11 -27 -25 -45 -14 -18 -29 -44 -34 -57 -7 -17 -20
-26 -46 -31 -19 -4 -33 -11 -30 -15 6 -11 -50 2 -88 19 -29 14 -51 5 -27 -10
8 -5 19 -11 23 -13 5 -1 10 -15 10 -30 2 -24 3 -25 15 -10 6 9 12 20 12 25 0
17 32 7 56 -17 14 -14 26 -25 28 -25 8 0 0 36 -9 42 -5 4 2 8 16 8 14 0 43
-13 65 -30 21 -16 47 -30 56 -30 9 0 20 -4 23 -10 3 -5 13 -10 22 -10 8 0 29
-6 46 -14 18 -8 73 -31 124 -50 50 -20 104 -43 120 -51 15 -8 34 -15 41 -15
20 0 103 -50 130 -77 29 -30 70 -117 79 -167 4 -25 9 -33 13 -25 5 8 4 38 -1
68 -4 30 -6 65 -3 78 4 14 2 23 -5 23 -6 0 -11 -10 -12 -22 0 -15 -2 -18 -6
-8 -3 8 -11 20 -17 25 -6 6 -22 25 -35 43 -12 17 -27 32 -33 32 -5 0 -21 9
-35 20 -14 11 -34 20 -45 20 -11 0 -17 4 -14 9 7 11 -18 21 -55 21 -18 0 -29
5 -29 14 0 9 11 12 38 10 20 -2 30 0 22 3 -8 3 -18 11 -22 17 -6 8 -8 8 -8 0
0 -6 -16 -10 -35 -10 -19 1 -35 5 -35 9 0 5 -6 7 -12 4 -7 -2 -26 3 -43 11
-16 9 -32 17 -35 17 -11 3 -49 18 -112 45 -42 18 -68 24 -68 17 0 -6 -7 -1
-16 11 -8 12 -20 20 -25 17 -12 -8 -12 28 1 41 6 6 13 21 15 34 3 13 11 28 20
32 8 5 15 18 15 30 0 12 16 41 36 64 20 26 30 44 22 44 -8 0 -6 4 5 11 21 12
52 69 48 88 -1 7 1 11 6 8 4 -3 8 10 8 29 0 19 -2 34 -5 34 -3 0 -17 -15 -31
-33z"/>
<path d="M2355 2952 c16 -13 37 -34 47 -45 l18 -22 -11 28 c-16 36 -7 43 32
23 38 -19 72 -21 67 -3 -5 15 -32 23 -117 35 l-64 9 28 -25z"/>
<path d="M2615 2938 c4 -16 3 -19 -3 -9 -6 8 -12 9 -16 3 -3 -5 3 -17 14 -27
18 -16 25 -14 21 8 -4 24 113 -3 141 -33 19 -21 38 -26 38 -11 0 14 -41 61
-49 56 -5 -2 -16 4 -26 15 -14 15 -31 20 -72 20 -52 0 -54 -1 -48 -22z"/>
<path d="M400 2931 c-43 -9 -100 -38 -100 -51 0 -6 -8 -10 -17 -11 -11 0 -13
-2 -5 -6 7 -3 23 2 36 10 25 17 144 42 153 33 3 -3 0 -12 -7 -21 -9 -11 -17
-12 -30 -5 -27 14 -34 12 -20 -5 10 -12 7 -15 -12 -20 -20 -5 -24 -11 -20 -36
3 -17 9 -28 16 -26 7 3 10 -11 8 -42 -2 -34 0 -42 7 -31 10 13 11 13 11 0 0
-9 9 -22 19 -29 11 -8 17 -21 13 -29 -4 -12 -1 -14 12 -9 12 5 26 -2 44 -20
15 -16 59 -44 97 -63 39 -19 73 -39 76 -43 4 -5 23 -9 43 -9 23 0 39 -5 43
-14 4 -10 9 -12 18 -4 20 16 78 6 86 -16 7 -17 8 -17 8 -1 1 12 9 17 30 17 16
0 39 8 52 19 21 17 26 17 57 4 19 -8 37 -12 40 -9 3 3 -9 12 -27 19 -29 12
-35 32 -7 21 7 -3 13 1 14 8 1 7 4 24 6 38 2 14 5 31 5 38 2 21 21 13 48 -18
13 -16 30 -30 36 -30 6 0 3 6 -8 13 -10 8 -15 19 -11 25 7 11 -119 142 -136
142 -5 0 -16 8 -26 18 -52 49 -259 122 -405 142 -86 11 -95 11 -147 1z m275
-51 c101 -27 165 -56 165 -76 0 -12 6 -15 22 -11 28 8 109 -42 144 -88 31 -41
33 -102 3 -134 -12 -12 -27 -20 -35 -17 -8 3 -14 -1 -14 -9 0 -19 -75 -29
-152 -21 -208 24 -419 192 -378 301 13 34 32 52 72 70 36 16 66 13 173 -15z
m-257 -52 c-6 -18 -28 -21 -28 -4 0 9 7 16 16 16 9 0 14 -5 12 -12z"/>
<path d="M683 2834 c3 -11 9 -35 12 -56 9 -47 27 -65 131 -134 47 -31 88 -62
91 -70 6 -15 33 -19 33 -5 0 5 -49 42 -110 82 -90 60 -112 79 -125 111 -8 21
-15 47 -15 58 0 10 -5 22 -11 26 -7 4 -9 0 -6 -12z"/>
<path d="M2531 2931 c-14 -9 -7 -31 10 -31 6 0 7 5 4 10 -14 22 7 8 49 -35 25
-25 43 -45 40 -45 -2 0 1 -6 8 -14 11 -12 14 -11 19 3 8 21 0 41 -16 41 -7 0
-33 18 -56 40 -24 22 -43 40 -44 40 0 0 -6 -4 -14 -9z"/>
<path d="M2336 2915 c-3 -9 -2 -13 3 -10 5 3 17 -5 25 -17 9 -12 16 -18 16
-12 0 6 -8 21 -19 33 -16 18 -20 19 -25 6z"/>
<path d="M226 2884 c-3 -9 -6 -25 -6 -37 1 -21 1 -21 15 3 8 14 14 31 15 38 0
17 -17 15 -24 -4z"/>
<path d="M148 2849 c4 -26 6 -29 19 -17 15 16 8 48 -11 48 -8 0 -11 -11 -8
-31z"/>
<path d="M2822 2818 c0 -34 6 -71 13 -82 7 -12 21 -59 31 -106 9 -47 22 -94
28 -105 5 -11 9 -26 7 -34 -1 -7 2 -10 8 -6 15 8 14 38 -1 53 -10 10 -10 17 1
34 11 18 11 20 -2 15 -13 -5 -15 1 -10 30 4 26 3 34 -5 29 -8 -5 -10 -2 -6 9
4 8 1 21 -5 29 -6 7 -8 22 -4 31 4 12 3 16 -4 12 -15 -10 -30 42 -34 121 -1
12 -5 25 -9 27 -5 3 -8 -23 -8 -57z"/>
<path d="M1100 2831 c-12 -24 -13 -31 -1 -31 5 0 11 11 13 25 6 30 2 32 -12 6z"/>
<path d="M2686 2834 c-21 -20 -20 -28 0 -20 9 4 23 1 30 -5 10 -8 14 -8 14 0
0 15 33 14 48 -1 9 -9 12 -9 12 0 0 27 -82 48 -104 26z"/>
<path d="M180 2814 c0 -12 7 -27 15 -34 19 -16 19 -3 0 30 -13 24 -14 24 -15
4z"/>
<path d="M310 2810 c6 -11 16 -20 23 -19 9 0 9 2 0 6 -7 2 -13 11 -13 19 0 8
-5 14 -10 14 -7 0 -7 -6 0 -20z"/>
<path d="M1051 2773 c13 -14 31 -34 39 -43 43 -48 56 -67 52 -79 -3 -8 0 -11
6 -7 6 3 13 0 15 -6 4 -10 6 -10 6 0 1 14 -15 47 -33 69 -40 49 -86 93 -97 93
-7 0 -2 -12 12 -27z"/>
<path d="M2731 2776 c-10 -12 -8 -17 7 -25 17 -9 19 -8 15 8 -3 13 1 21 14 24
15 4 15 5 -3 6 -12 0 -27 -5 -33 -13z"/>
<path d="M1200 2760 c-9 -6 -10 -10 -3 -10 7 0 15 -21 19 -50 8 -58 23 -68 19
-12 -4 56 -17 83 -35 72z"/>
<path d="M331 2705 c17 -24 38 -49 47 -55 9 -5 14 -10 10 -10 -11 0 30 -40 40
-40 5 0 17 -9 27 -20 10 -11 26 -20 37 -20 21 0 24 -15 6 -24 -7 -3 -2 -4 12
-1 16 3 39 -4 60 -17 45 -28 96 -49 138 -55 18 -3 32 -11 32 -19 0 -8 9 -14
21 -14 13 0 18 4 13 11 -5 8 1 10 18 6 54 -14 168 -20 168 -9 0 17 -59 25 -77
10 -12 -9 -15 -9 -9 0 5 9 -2 12 -27 12 -90 0 -271 69 -380 144 -66 46 -124
102 -132 126 -3 11 -13 20 -20 20 -10 0 -5 -14 16 -45z"/>
<path d="M2659 2743 c-1 -5 -1 -12 0 -16 1 -4 -6 -15 -14 -23 -8 -9 -13 -20
-10 -25 9 -14 25 -11 19 4 -6 16 16 37 43 42 29 6 29 6 8 15 -26 11 -45 12
-46 3z"/>
<path d="M2714 2706 c-17 -6 -33 -15 -35 -21 -7 -17 56 -17 92 -1 l34 16 -35
-6 c-31 -6 -33 -5 -21 10 15 18 9 19 -35 2z"/>
<path d="M1488 2688 c29 -14 29 -53 0 -69 -36 -19 -110 -13 -130 12 -17 20
-17 20 -38 -13 -29 -47 -26 -66 8 -61 79 11 141 29 177 52 22 14 41 26 43 27
10 5 -24 53 -42 58 -33 9 -43 6 -18 -6z m-104 -103 c-27 -20 -51 -20 -34 0 7
8 22 15 33 15 20 0 20 0 1 -15z"/>
<path d="M1430 2665 c14 -8 19 -15 13 -16 -7 -1 -19 -2 -25 -3 -7 -1 -19 2
-27 8 -10 8 -12 6 -10 -9 5 -27 58 -33 75 -10 18 24 6 45 -25 45 l-26 -1 25
-14z"/>
<path d="M2771 2659 c-31 -12 -21 -22 24 -24 37 -1 42 4 23 23 -14 14 -15 14
-47 1z"/>
<path d="M1611 2641 c-8 -5 -9 -11 -3 -15 6 -3 13 -2 17 4 4 6 10 8 15 5 5 -3
11 -1 15 5 8 12 -25 13 -44 1z"/>
<path d="M2643 2635 c0 -8 4 -12 8 -10 7 5 24 -32 32 -70 3 -11 5 -4 5 15 0
19 -3 44 -6 55 -8 23 -39 32 -39 10z"/>
<path d="M2700 2630 c0 -5 5 -9 11 -7 6 1 14 -4 17 -12 3 -8 0 -11 -7 -7 -6 4
-11 2 -11 -4 0 -7 9 -14 20 -17 11 -3 20 -9 20 -13 0 -12 -26 -30 -33 -23 -4
3 -7 -1 -7 -10 0 -13 5 -14 30 -6 17 6 30 15 30 20 0 5 5 9 11 9 5 0 8 -4 4
-9 -6 -12 1 -16 40 -25 l30 -8 -29 31 c-16 17 -38 33 -48 37 -10 3 -16 9 -14
13 7 10 -31 41 -49 41 -8 0 -15 -4 -15 -10z"/>
<path d="M1536 2618 c-18 -10 -15 -13 24 -28 43 -17 43 -18 21 -29 -12 -7 -20
-18 -18 -25 3 -7 -4 -18 -14 -24 -17 -11 -21 -9 -29 13 -6 15 -10 35 -10 46 0
26 -18 15 -31 -18 -7 -18 -14 -23 -29 -18 -12 4 -20 2 -20 -5 0 -6 5 -8 12 -4
8 5 9 2 5 -9 -3 -9 -1 -19 5 -23 6 -4 8 -3 5 3 -4 6 5 15 18 21 36 17 41 -4 8
-33 -36 -31 -39 -31 -55 3 -9 17 -21 26 -33 25 -11 -2 -41 -3 -66 -4 -39 -1
-49 -6 -63 -29 -9 -16 -16 -31 -16 -34 0 -10 44 -7 99 6 59 13 91 2 110 -38 6
-13 15 -24 21 -24 16 0 12 31 -6 44 -14 10 -12 15 12 39 16 16 30 23 34 18 8
-14 66 3 62 19 -1 6 3 10 10 8 7 -3 16 -18 20 -34 5 -20 6 -16 3 14 -5 37 -3
42 14 42 11 0 23 9 26 20 4 11 11 18 16 15 5 -3 6 1 3 9 -10 27 -34 18 -35
-11 0 -17 -3 -22 -6 -13 -4 8 -14 22 -25 31 -10 9 -18 21 -18 28 0 14 -29 14
-54 -1z"/>
<path d="M2216 2612 c-2 -4 10 -9 27 -10 18 -2 34 -7 35 -12 2 -6 20 -10 40
-9 37 0 36 1 -18 19 -61 22 -77 24 -84 12z"/>
<path d="M1678 2549 c-9 -6 -5 -9 13 -9 14 0 30 -5 37 -12 9 -9 12 -8 12 4 0
18 -42 29 -62 17z"/>
<path d="M2229 2549 c-10 -6 -7 -9 13 -9 15 0 39 -5 53 -12 19 -9 28 -9 37 0
6 6 8 15 3 19 -4 5 -10 2 -13 -6 -3 -10 -6 -10 -12 -2 -9 16 -62 22 -81 10z"/>
<path d="M1850 2527 c-1 -21 -1 -21 -14 -4 -10 13 -21 16 -40 11 -30 -7 -34
-33 -10 -69 24 -36 10 -30 -35 15 -46 46 -73 54 -46 13 16 -24 16 -26 1 -20
-11 4 -15 3 -11 -4 4 -6 14 -8 22 -5 10 4 28 -7 48 -28 22 -24 40 -34 54 -31
11 2 28 -3 36 -11 10 -10 20 -12 31 -6 13 7 10 10 -15 15 -17 4 -34 6 -37 4
-5 -2 -33 42 -34 53 0 3 13 13 28 22 22 13 32 14 40 6 9 -9 12 -9 12 0 0 7 -4
12 -10 12 -5 0 -10 5 -10 10 0 6 7 10 15 10 10 0 15 -10 15 -29 0 -16 3 -37 7
-47 5 -14 3 -16 -13 -10 -37 16 -59 16 -26 1 40 -19 72 -11 72 16 0 10 -4 19
-9 19 -6 0 -9 12 -8 26 2 20 -5 28 -30 39 -32 13 -33 13 -33 -8z"/>
<path d="M425 2530 c11 -5 27 -9 35 -9 13 -1 13 0 0 9 -8 5 -24 9 -35 9 -20 0
-20 0 0 -9z"/>
<path d="M1644 2515 c3 -8 1 -27 -5 -42 -7 -18 -6 -30 1 -37 7 -7 10 -3 10 14
0 13 8 32 17 42 15 17 15 20 3 28 -22 14 -33 12 -26 -5z"/>
<path d="M2555 2517 c-10 -8 -15 -19 -11 -25 4 -7 3 -12 -2 -12 -6 0 -9 -17
-8 -37 1 -21 -1 -55 -5 -76 -4 -25 -3 -35 3 -29 5 5 10 32 11 59 1 36 6 49 14
46 7 -3 10 -10 6 -16 -3 -5 -1 -7 5 -3 6 3 13 2 17 -4 3 -5 16 -10 28 -9 12 0
16 3 10 6 -17 6 -16 28 2 47 14 13 12 18 -12 40 -32 30 -33 30 -58 13z m39
-13 c9 -24 7 -52 -5 -60 -18 -11 -30 11 -23 44 7 35 18 41 28 16z"/>
<path d="M420 2505 c0 -11 -7 -14 -22 -10 -35 7 -93 -26 -94 -53 -1 -12 -4
-25 -7 -28 -3 -3 1 -27 9 -52 7 -26 14 -59 14 -74 0 -15 5 -30 10 -33 6 -3 10
-22 10 -41 0 -20 7 -43 17 -52 16 -16 16 -16 9 3 -5 11 -10 40 -12 65 -4 44
-4 43 22 -25 14 -38 30 -87 36 -107 6 -21 14 -38 19 -38 8 0 -4 48 -23 87 -6
11 -8 27 -6 34 4 13 78 -99 78 -118 0 -6 9 -20 20 -33 11 -13 20 -29 20 -35 0
-7 7 -18 15 -25 17 -14 19 -7 5 18 -6 9 -26 55 -46 102 -19 47 -33 72 -30 55
l5 -30 -14 30 c-8 17 -14 36 -15 43 0 10 -19 17 -42 13 -12 -1 -56 150 -59
204 l-4 50 36 3 c58 5 89 -28 143 -150 9 -21 22 -38 27 -38 10 0 39 -24 39
-33 0 -2 -12 -2 -26 1 -20 4 -25 1 -22 -9 3 -8 22 -15 47 -17 23 -2 39 -6 37
-10 -3 -4 4 -8 15 -8 10 0 19 4 19 9 0 13 49 -27 50 -40 0 -7 4 -13 10 -13 15
0 22 -62 11 -110 -10 -46 2 -130 20 -130 5 0 4 11 -1 25 -5 14 -6 25 -2 25 4
0 8 21 9 48 3 93 9 132 23 145 10 9 12 9 6 0 -4 -7 -3 -13 2 -13 6 0 13 -11
16 -25 7 -26 26 -35 26 -11 0 23 -38 101 -59 120 -24 21 -51 15 -58 -14 -3
-11 -9 -17 -14 -15 -4 3 -6 12 -2 20 4 12 0 13 -18 7 -15 -6 -32 -4 -51 5 -33
17 -36 23 -8 16 13 -4 20 0 20 10 0 8 7 18 16 21 13 5 15 2 11 -14 -6 -25 8
-34 30 -20 17 11 17 11 1 6 -22 -7 -22 1 -3 48 12 27 23 38 45 43 17 3 30 10
30 15 0 5 9 6 20 3 15 -5 20 -2 20 11 0 10 -3 14 -6 11 -4 -3 -18 3 -32 13
-16 13 -40 20 -67 20 -42 0 -43 0 -32 -25 7 -13 14 -20 15 -15 4 12 49 13 56
2 3 -5 -11 -16 -30 -26 -24 -11 -34 -22 -30 -31 7 -19 -2 -23 -63 -29 -43 -4
-52 -2 -47 10 3 8 1 14 -4 14 -6 0 -10 6 -10 12 0 7 -16 36 -36 65 -29 42 -34
56 -25 67 8 10 9 16 1 21 -5 3 -10 -1 -10 -9 0 -9 -5 -16 -11 -16 -5 0 -7 5
-3 12 5 8 2 9 -9 5 -16 -6 -22 7 -18 41 1 6 -3 12 -9 12 -5 0 -10 -7 -10 -15z
m316 -320 c-3 -9 0 -15 9 -15 9 0 12 -6 9 -15 -5 -12 -9 -13 -21 -4 -7 7 -12
18 -9 25 3 7 0 15 -7 18 -7 2 -4 5 7 5 12 1 16 -4 12 -14z"/>
<path d="M1964 2465 c11 -30 24 -55 28 -55 5 0 -1 24 -12 53 -11 28 -20 53
-20 55 0 1 -4 2 -9 2 -4 0 1 -25 13 -55z"/>
<path d="M2698 2483 c12 -2 20 -8 18 -12 -3 -4 9 -5 26 -3 21 3 29 1 24 -7 -5
-7 1 -11 13 -11 12 0 21 -4 21 -10 0 -5 14 -10 31 -10 27 0 30 2 19 15 -7 8
-22 15 -34 15 -11 0 -30 7 -40 15 -11 8 -38 14 -60 14 -24 -1 -31 -4 -18 -6z"/>
<path d="M2030 2473 c0 -15 47 -70 54 -62 3 3 -8 21 -24 40 -16 19 -29 29 -30
22z"/>
<path d="M2858 2460 c19 -15 26 -17 37 -7 11 10 9 13 -9 19 -42 12 -52 8 -28
-12z"/>
<path d="M1532 2443 c7 -15 13 -30 14 -31 5 -8 44 10 44 21 0 8 -3 8 -12 -1
-9 -9 -14 -6 -22 10 -6 12 -17 23 -24 26 -10 3 -10 -2 0 -25z"/>
<path d="M2001 2460 c-1 -8 6 -35 15 -60 9 -25 16 -64 16 -88 1 -23 4 -45 8
-47 11 -7 11 56 -1 110 -12 53 -38 110 -38 85z"/>
<path d="M506 2452 c-8 -13 55 -41 108 -48 26 -4 27 -2 15 12 -12 15 -11 16 8
10 12 -4 24 -3 26 2 7 10 -34 10 -50 -1 -7 -4 -23 -1 -35 7 -33 20 -65 28 -72
18z"/>
<path d="M1394 2399 c2 -27 0 -30 -20 -25 -30 8 -39 -9 -20 -36 24 -34 21 -56
-4 -33 -11 10 -20 24 -20 31 0 29 -98 59 -129 40 -10 -6 -12 -5 -7 2 9 16 5
15 -34 -5 -30 -14 -32 -17 -14 -23 10 -4 34 -1 53 7 66 27 63 4 -4 -31 -67
-36 -133 -82 -172 -123 -12 -13 -26 -23 -30 -23 -8 0 -33 -47 -33 -63 0 -4 5
-5 10 -2 6 4 8 11 5 16 -4 5 -2 9 2 9 5 0 32 21 61 46 49 43 52 44 50 20 -1
-14 -10 -27 -20 -29 -10 -3 -18 -14 -18 -25 0 -11 -3 -27 -6 -36 -3 -8 43 34
104 95 106 108 136 126 138 83 1 -35 15 -84 24 -84 5 0 4 15 -1 32 -6 21 -5
34 0 36 6 2 7 11 4 20 -4 11 2 8 15 -7 12 -13 22 -20 22 -15 0 5 7 -2 16 -14
8 -12 22 -22 30 -22 14 0 14 2 0 16 -22 21 -20 84 3 112 24 28 35 29 20 0 -10
-18 -9 -20 5 -15 9 4 16 2 16 -4 0 -6 -9 -13 -20 -16 -29 -8 -25 -21 5 -15 22
4 25 9 22 38 -3 29 -34 74 -51 74 -2 0 -3 -14 -2 -31z"/>
<path d="M2156 2400 c20 -33 26 -34 18 -3 -3 12 -12 24 -20 27 -12 5 -11 0 2
-24z"/>
<path d="M1527 2396 c4 -13 3 -17 -4 -13 -8 5 -10 -6 -6 -35 5 -49 13 -64 13
-25 0 14 5 29 10 32 14 8 13 18 -5 41 -15 18 -15 18 -8 0z"/>
<path d="M2815 2400 c4 -6 14 -9 22 -6 8 3 11 1 8 -4 -3 -6 4 -10 17 -10 18 0
20 2 8 10 -8 5 -10 10 -4 10 6 0 19 -10 28 -22 l16 -23 -9 25 c-7 21 -16 26
-51 28 -29 2 -40 0 -35 -8z"/>
<path d="M2096 2353 c13 -27 24 -56 24 -65 0 -10 5 -18 11 -18 6 0 8 7 5 16
-3 9 -9 28 -13 42 -7 31 -32 72 -43 72 -4 0 3 -21 16 -47z"/>
<path d="M2285 2370 c8 -27 22 -46 29 -39 3 3 -4 18 -15 34 -19 28 -20 28 -14
5z"/>
<path d="M2790 2365 c-14 -17 10 -26 47 -16 l28 7 -32 11 c-25 9 -34 9 -43 -2z"/>
<path d="M2333 2342 c20 -44 69 -112 78 -107 4 3 -8 29 -27 57 -19 29 -34 56
-34 59 0 4 -6 9 -14 12 -12 5 -13 1 -3 -21z"/>
<path d="M2622 2358 c2 -6 10 -14 16 -16 7 -2 10 2 6 12 -7 18 -28 22 -22 4z"/>
<path d="M1470 2340 c-1 -14 -4 -35 -5 -47 -1 -12 2 -27 7 -35 8 -10 9 -9 5 4
-3 9 -3 18 1 20 4 2 4 21 1 43 -4 29 -7 33 -9 15z"/>
<path d="M596 2334 c-9 -23 -2 -28 29 -20 28 7 35 26 8 22 -10 -2 -21 1 -24 6
-3 5 -9 2 -13 -8z"/>
<path d="M2870 2330 c0 -5 7 -10 15 -10 8 0 15 5 15 10 0 6 -7 10 -15 10 -8 0
-15 -4 -15 -10z"/>
<path d="M440 2318 c0 -8 6 -23 14 -33 13 -18 14 -18 9 8 -6 29 -23 48 -23 25z"/>
<path d="M2808 2313 c6 -2 10 -9 7 -14 -3 -4 7 -11 22 -15 15 -3 34 -7 41 -10
20 -6 14 14 -10 30 -12 9 -34 16 -48 15 -14 0 -19 -3 -12 -6z"/>
<path d="M1420 2300 c-8 -5 -12 -11 -9 -14 3 -3 14 1 25 9 21 16 8 20 -16 5z"/>
<path d="M2086 2290 c3 -14 13 -36 21 -49 12 -19 17 -21 24 -10 5 8 9 19 9 24
0 6 -4 4 -9 -4 -9 -15 -14 -10 -38 39 l-13 25 6 -25z"/>
<path d="M2924 2287 c3 -10 6 -23 6 -28 0 -5 5 -9 10 -9 14 0 12 13 -6 36 -14
17 -15 17 -10 1z"/>
<path d="M2326 2281 c-4 -5 3 -25 14 -43 l20 -33 -2 33 c-2 35 -22 61 -32 43z"/>
<path d="M399 2243 c8 -30 31 -44 31 -18 0 15 -22 45 -33 45 -3 0 -2 -12 2
-27z"/>
<path d="M1433 2263 c-18 -7 -16 -23 2 -23 8 0 15 7 15 15 0 8 -1 15 -2 14 -2
0 -9 -3 -15 -6z"/>
<path d="M460 2252 c0 -4 4 -13 9 -20 7 -11 9 -11 14 1 3 9 -1 18 -9 21 -8 3
-14 2 -14 -2z"/>
<path d="M2470 2249 c0 -5 -4 -7 -10 -4 -5 3 -10 1 -10 -5 0 -7 6 -10 14 -7
10 4 20 -13 34 -56 16 -49 21 -56 21 -32 0 17 -8 49 -19 73 -18 41 -30 53 -30
31z"/>
<path d="M2824 2248 c12 -7 21 -7 28 0 6 6 0 10 -18 10 -23 0 -24 -2 -10 -10z"/>
<path d="M2875 2240 c3 -5 2 -10 -3 -10 -5 0 -20 -10 -33 -21 l-24 -21 45 7
c25 4 48 9 52 12 11 6 -15 43 -30 43 -7 0 -10 -4 -7 -10z"/>
<path d="M1225 2229 c-12 -19 5 -23 22 -6 16 16 16 17 1 17 -9 0 -20 -5 -23
-11z"/>
<path d="M2247 2233 c-11 -10 -8 -35 3 -28 6 3 7 -1 4 -9 -4 -11 0 -16 10 -16
17 0 20 17 10 44 -7 17 -16 20 -27 9z"/>
<path d="M2375 2220 c4 -13 15 -40 24 -61 14 -29 20 -36 29 -27 14 14 16 32 3
24 -4 -3 -16 13 -26 35 -20 44 -41 65 -30 29z"/>
<path d="M486 2202 c-12 -19 15 -80 37 -86 15 -4 29 -22 45 -62 13 -31 20 -59
17 -62 -3 -4 -8 3 -11 15 -3 12 -12 24 -20 27 -8 3 -14 14 -14 24 0 11 -7 25
-15 32 -13 11 -13 8 -1 -26 18 -51 113 -254 119 -254 10 0 1 36 -11 43 -9 6
-11 19 -7 37 4 16 0 48 -9 72 -36 107 -78 195 -100 214 -14 12 -22 25 -19 28
4 3 4 6 0 6 -3 0 -8 -4 -11 -8z"/>
<path d="M1212 2191 c-9 -5 -11 -17 -6 -36 5 -18 2 -30 -7 -36 -8 -5 -9 -9 -3
-9 19 0 34 25 29 50 -3 13 1 28 8 32 6 4 8 8 2 8 -5 0 -16 -4 -23 -9z"/>
<path d="M2361 2170 c0 -14 4 -32 9 -40 8 -12 10 -12 9 5 0 11 -4 29 -9 40 -8
18 -9 18 -9 -5z"/>
<path d="M570 2169 c0 -6 76 -58 120 -82 8 -4 -9 14 -38 41 -47 44 -82 61 -82
41z"/>
<path d="M2870 2169 c0 -11 42 -39 58 -39 11 0 12 4 4 13 -6 6 -10 17 -9 22 1
6 -10 10 -25 10 -16 1 -28 -2 -28 -6z"/>
<path d="M2800 2160 c0 -5 9 -10 20 -10 11 0 20 5 20 10 0 6 -9 10 -20 10 -11
0 -20 -4 -20 -10z"/>
<path d="M880 2131 c13 -26 27 -34 35 -21 8 14 -13 40 -32 40 -10 0 -11 -4 -3
-19z"/>
<path d="M1132 2143 c-21 -8 -4 -21 23 -16 13 3 22 9 19 14 -6 10 -21 10 -42
2z"/>
<path d="M2846 2116 c4 -10 18 -16 38 -16 33 1 24 11 -21 24 -18 6 -22 4 -17
-8z"/>
<path d="M590 2105 c0 -2 11 -29 24 -59 13 -29 27 -69 31 -87 11 -55 16 -69
25 -69 20 0 15 65 -7 96 -12 16 -32 51 -43 77 -18 41 -30 58 -30 42z"/>
<path d="M870 2081 c0 -17 2 -31 4 -31 8 0 13 51 5 56 -5 3 -9 -9 -9 -25z"/>
<path d="M2538 2104 c-5 -4 -8 -21 -8 -38 0 -21 3 -27 11 -19 6 6 9 23 7 38
-2 15 -6 23 -10 19z"/>
<path d="M1685 2090 c-3 -5 1 -10 9 -10 9 0 16 -4 16 -10 0 -12 25 -25 65 -34
25 -6 21 -1 -23 28 -60 40 -59 40 -67 26z"/>
<path d="M640 2079 c0 -17 41 -81 48 -75 2 3 0 11 -5 18 -6 7 -13 25 -17 41
-6 26 -26 38 -26 16z"/>
<path d="M2912 2072 c-16 -14 -18 -22 -10 -30 7 -7 8 -12 2 -12 -6 0 -15 5
-21 11 -8 8 -13 8 -17 0 -4 -6 -19 -11 -34 -11 l-27 0 33 -21 33 -22 23 22
c12 11 28 21 34 21 7 0 12 8 12 18 0 14 -2 15 -10 2 -5 -8 -10 -10 -10 -4 0 5
5 15 12 22 20 20 3 23 -20 4z"/>
<path d="M1678 2035 c2 -14 8 -25 13 -25 5 0 9 -4 9 -10 0 -5 -8 -10 -17 -10
-25 -1 -2 -13 62 -35 45 -15 54 -23 93 -86 44 -72 53 -109 27 -109 -17 0 -20
-16 -6 -25 5 -3 12 -19 16 -35 7 -33 20 -39 27 -12 9 37 0 142 -13 158 -7 9
-14 26 -16 37 -2 12 -12 28 -23 36 -11 7 -20 20 -20 28 0 8 -4 12 -9 9 -5 -3
-11 1 -15 9 -3 8 -15 15 -26 15 -11 0 -20 5 -20 10 0 6 5 10 10 10 6 0 10 4
10 10 0 5 -7 7 -16 3 -8 -3 -27 3 -42 14 -47 34 -49 34 -44 8z"/>
<path d="M440 2037 c0 -17 26 -88 53 -144 17 -37 20 -18 4 29 -24 68 -57 135
-57 115z"/>
<path d="M2961 1995 c0 -38 2 -45 9 -28 5 12 5 34 0 50 -7 24 -8 21 -9 -22z"/>
<path d="M2720 2022 c0 -5 8 -8 19 -5 10 2 26 -3 35 -12 18 -19 30 -17 17 3
-9 15 -71 28 -71 14z"/>
<path d="M2836 1955 c5 -21 3 -24 -12 -18 -10 4 -15 2 -11 -4 3 -5 22 -10 42
-11 l36 -1 -28 29 c-34 36 -35 37 -27 5z"/>
<path d="M1660 1958 c0 -9 -6 -19 -12 -21 -9 -4 -8 -6 2 -6 19 -1 69 -91 62
-110 -3 -10 0 -12 11 -8 19 7 41 -17 34 -37 -3 -7 5 -23 19 -35 13 -11 24 -26
24 -32 0 -16 44 -53 48 -40 4 12 -22 65 -52 106 -13 17 -33 50 -45 75 -29 58
-90 132 -91 108z"/>
<path d="M2500 1886 c-5 -13 -14 -26 -21 -28 -9 -3 -8 -6 4 -11 9 -3 16 -3 15
1 -3 14 14 42 23 36 5 -3 6 2 3 10 -8 22 -13 20 -24 -8z"/>
<path d="M550 1894 c0 -2 10 -8 21 -15 17 -8 20 -8 17 2 -4 11 -38 23 -38 13z"/>
<path d="M2733 1890 c-13 -5 -23 -12 -23 -15 0 -8 53 6 65 16 12 12 -13 11
-42 -1z"/>
<path d="M2815 1886 c20 -17 20 -17 -2 -11 -13 4 -23 2 -23 -3 0 -5 23 -9 50
-9 54 1 66 13 23 23 -16 3 -37 8 -48 11 -20 5 -20 5 0 -11z"/>
<path d="M2722 1853 c-6 -3 -9 -9 -6 -14 3 -6 -9 -24 -27 -41 -31 -30 -33 -30
-46 -12 -8 10 -19 18 -24 17 -5 -2 -9 2 -9 8 0 6 -6 9 -12 6 -7 -2 -21 2 -30
11 -17 14 -18 13 -18 -11 0 -21 7 -28 43 -39 41 -14 42 -15 47 -69 l5 -54 20
55 c10 30 18 58 17 62 -1 3 5 12 13 18 8 7 15 8 15 3 0 -6 32 -10 73 -11 39 0
79 -2 87 -4 24 -5 18 33 -8 50 -20 13 -22 13 -16 -2 3 -9 1 -16 -5 -16 -6 0
-11 5 -11 12 0 9 -3 9 -12 0 -18 -18 -46 -14 -53 7 -6 21 -23 30 -43 24z m28
-29 c0 -8 -6 -14 -14 -14 -9 0 -12 7 -9 20 6 22 23 18 23 -6z"/>
<path d="M2522 1789 c-7 -11 -10 -24 -7 -29 4 -6 0 -10 -8 -10 -8 0 -20 -7
-27 -15 -7 -8 -16 -13 -20 -10 -4 3 -7 -1 -6 -8 1 -14 -64 -74 -124 -116 -33
-22 -100 -94 -73 -78 9 6 11 3 7 -7 -3 -9 -9 -14 -13 -12 -3 2 -6 -22 -6 -54
1 -57 0 -58 -23 -49 -14 5 -27 8 -29 5 -3 -2 4 -7 15 -10 11 -4 22 -16 25 -27
5 -18 2 -20 -16 -14 -12 4 -30 7 -40 6 -9 0 -15 4 -12 8 7 12 -138 0 -155 -13
-28 -21 -60 -36 -75 -36 -8 0 -15 -4 -15 -10 0 -5 14 -7 33 -3 17 3 34 6 37 6
19 3 80 -16 90 -27 9 -11 7 -17 -7 -25 -10 -6 -13 -11 -6 -11 18 0 43 29 43
51 0 11 -3 18 -8 15 -12 -7 -77 9 -75 19 4 17 124 24 171 10 l43 -13 19 39
c12 22 20 58 20 86 0 26 4 53 8 58 4 6 53 50 109 98 56 48 105 92 108 97 13
21 25 9 25 -25 0 -29 5 -37 26 -45 20 -8 24 -13 15 -24 -6 -7 -8 -16 -4 -19 3
-4 -1 -7 -11 -7 -28 0 -322 -270 -309 -284 11 -11 21 -6 57 29 19 20 38 36 41
35 11 -2 64 54 59 62 -3 4 2 5 10 2 10 -4 16 -1 16 9 0 9 9 19 20 22 11 3 20
11 20 17 0 5 7 7 16 4 8 -3 12 -2 9 4 -7 11 17 40 32 40 5 0 15 9 23 20 8 11
20 20 28 20 8 0 10 5 6 13 -6 10 -4 10 7 0 16 -15 49 -17 49 -3 0 6 9 10 19
10 10 0 22 7 25 16 11 29 24 4 24 -47 1 -28 6 -56 11 -63 6 -7 8 -15 5 -18 -3
-3 20 -14 52 -24 49 -15 58 -16 68 -3 6 8 18 13 27 11 21 -4 70 36 68 57 -1 9
-1 27 0 41 2 23 3 24 15 7 13 -16 14 -16 19 4 3 12 2 29 -3 38 -12 22 -69 76
-74 70 -3 -3 -1 -22 4 -44 11 -45 13 -139 4 -148 -3 -3 -12 -3 -20 0 -9 3 -14
22 -14 57 0 68 -11 127 -21 120 -5 -3 -9 -40 -9 -82 0 -95 -7 -122 -31 -122
-16 0 -17 6 -12 53 3 28 10 55 16 58 5 4 4 9 -3 14 -7 5 -9 20 -5 46 4 23 3
39 -3 39 -5 0 -12 -35 -16 -77 -9 -99 -15 -123 -31 -123 -18 0 -28 33 -21 68
3 15 8 64 12 109 6 80 5 83 -17 92 -27 10 -39 -8 -46 -68 -5 -38 -54 -98 -72
-86 -9 5 -9 10 0 21 10 12 8 18 -7 29 -10 8 -27 17 -36 20 -12 4 -18 18 -19
38 -6 120 -8 127 -27 96z"/>
<path d="M2900 1777 c0 -35 14 -62 56 -110 l34 -37 0 30 c0 20 -9 40 -25 56
-14 14 -24 28 -21 32 2 4 -7 18 -20 32 l-24 25 0 -28z"/>
<path d="M2808 1733 c-7 -26 15 -63 26 -45 4 7 3 12 -3 12 -5 0 -11 12 -13 28
-3 25 -4 25 -10 5z"/>
<path d="M2570 1711 c0 -19 26 -48 35 -39 6 6 -18 58 -27 58 -5 0 -8 -8 -8
-19z"/>
<path d="M1688 1618 c8 -8 8 -15 1 -24 -7 -9 -7 -19 1 -33 8 -16 8 -21 -2 -21
-9 0 -9 -3 2 -10 8 -5 11 -10 5 -10 -16 0 39 -27 56 -27 8 0 26 -3 41 -6 17
-4 30 -2 37 7 9 11 6 16 -19 24 -16 6 -30 16 -30 22 0 6 -5 8 -11 5 -17 -11
-69 16 -69 36 0 22 18 24 45 5 11 -7 34 -16 50 -20 17 -4 40 -14 53 -22 19
-12 21 -18 11 -30 -6 -8 -7 -14 -1 -14 5 0 15 6 21 14 9 11 4 22 -23 51 -22
23 -41 35 -51 31 -8 -3 -15 -1 -15 3 0 12 -27 22 -74 27 -30 3 -37 1 -28 -8z"/>
<path d="M1240 1507 c-18 -14 -20 -67 -3 -67 7 0 10 -7 7 -15 -4 -8 -2 -15 3
-15 6 0 22 -22 36 -49 15 -27 34 -54 42 -61 8 -7 15 -19 15 -26 0 -18 40 -44
65 -41 18 1 64 37 49 37 -4 0 2 12 11 27 12 18 14 28 7 31 -7 2 -12 13 -12 24
0 12 -7 26 -16 32 -8 6 -17 20 -18 31 -2 11 -9 19 -15 18 -6 -2 -11 1 -11 7 0
15 -61 70 -79 71 -9 1 -27 3 -41 4 -14 2 -32 -2 -40 -8z m81 -34 c22 -4 40
-23 79 -85 27 -43 50 -81 50 -84 0 -9 -44 -43 -56 -44 -6 0 -37 42 -69 93 -32
50 -65 103 -74 116 -15 24 -15 24 13 17 16 -4 41 -10 57 -13z"/>
<path d="M1795 1433 c-18 -14 -18 -15 -2 -9 10 3 23 6 28 6 5 0 9 5 9 10 0 14
-12 12 -35 -7z"/>
<path d="M1820 1395 c-14 -17 -50 -21 -50 -5 0 10 -90 -14 -99 -27 -3 -5 -19
-19 -35 -31 -16 -12 -25 -22 -21 -22 4 0 -4 -9 -19 -21 -14 -11 -30 -18 -35
-15 -5 3 -8 -2 -7 -10 0 -9 -7 -18 -17 -20 -10 -1 -37 -17 -61 -36 -37 -28
-43 -38 -41 -63 1 -16 13 -47 25 -67 19 -33 26 -53 29 -80 1 -5 10 -8 21 -8
11 0 20 -7 20 -15 0 -24 24 -17 56 16 23 24 25 29 9 23 -11 -4 -26 -12 -33
-17 -15 -12 -18 -10 -37 36 -15 36 -15 37 8 37 32 0 49 19 37 41 -12 21 -45
15 -65 -14 -13 -19 -14 -19 -34 14 l-20 33 36 33 c28 26 39 31 50 22 19 -16
68 28 52 47 -7 8 -6 14 2 19 6 4 15 2 19 -5 6 -10 14 -8 35 9 23 18 25 21 9
21 -16 1 -14 5 11 26 38 32 87 64 100 64 5 0 4 -5 -3 -12 -19 -19 -15 -26 26
-39 20 -6 43 -16 50 -22 8 -6 12 -6 12 2 0 17 21 13 36 -6 12 -16 12 -16 7 5
-5 20 -15 26 -35 23 -15 -2 -8 18 10 28 15 9 15 10 1 11 -9 0 -19 -7 -23 -15
-6 -17 -52 -20 -61 -4 -4 6 2 13 14 16 12 3 21 9 21 14 0 5 12 9 28 9 21 0 24
2 12 10 -20 13 -25 12 -40 -5z"/>
<path d="M2143 1313 c-20 -7 -16 -19 17 -52 35 -34 29 -43 -23 -31 -26 5 -37
4 -37 -4 0 -7 -3 -7 -8 2 -5 7 -16 10 -25 6 -10 -3 -17 -1 -17 5 0 6 -9 11
-20 11 -15 0 -20 7 -20 25 0 14 -4 25 -9 25 -5 0 -8 -8 -7 -17 0 -10 -7 -19
-18 -21 -10 -2 -16 0 -12 6 7 12 -22 25 -36 16 -5 -3 -2 -14 8 -25 9 -10 20
-16 24 -14 12 7 40 -5 40 -17 0 -6 -7 -8 -15 -4 -8 3 -15 1 -15 -4 0 -6 -10
-10 -22 -10 -19 0 -20 -2 -8 -10 12 -8 12 -10 1 -10 -8 0 -11 -3 -8 -7 4 -3
15 2 26 11 30 28 82 18 101 -19 8 -16 20 -33 25 -37 6 -4 10 -15 10 -25 0 -11
8 -18 20 -18 14 0 20 -7 19 -23 0 -19 5 -22 35 -22 27 0 32 -3 21 -10 -13 -8
-13 -10 1 -10 9 0 16 -7 15 -16 0 -9 4 -19 11 -21 7 -3 9 3 6 16 -6 24 4 26
31 6 10 -8 22 -12 27 -10 11 7 49 -49 49 -72 0 -10 -5 -24 -11 -30 -7 -7 -7
-13 -1 -17 6 -3 16 10 22 30 11 32 10 39 -10 66 -12 16 -23 37 -24 46 -3 20
-36 32 -58 21 -13 -7 -16 -6 -12 4 4 10 -7 16 -36 21 -25 4 -43 13 -47 24 -4
9 -17 27 -30 40 -16 15 -22 29 -18 41 5 16 2 18 -17 14 -19 -4 -18 -2 6 11 15
9 30 16 32 16 10 0 44 -46 44 -59 0 -20 37 -45 45 -31 9 14 38 12 71 -5 15 -8
30 -12 33 -10 9 9 -43 56 -56 51 -16 -6 -17 10 -2 20 8 4 7 9 -2 15 -19 12
-42 11 -34 0 5 -10 -33 -27 -41 -18 -9 9 39 58 52 53 7 -3 16 -1 19 4 4 6 -8
10 -26 10 -47 0 -81 53 -41 63 11 3 8 5 -8 5 -14 0 -31 -2 -37 -5z"/>
<path d="M1743 1218 c-176 -143 -169 -133 -127 -175 l25 -25 -22 -24 -23 -24
32 11 c17 6 34 18 37 27 3 10 33 33 67 52 34 19 79 50 101 68 21 17 42 32 45
32 4 0 22 -24 39 -52 l33 -52 -38 -30 c-20 -16 -65 -57 -100 -91 -34 -34 -64
-59 -67 -57 -3 3 -5 0 -5 -6 0 -21 19 -22 25 -2 3 11 13 20 22 20 8 0 43 23
76 51 34 28 67 54 74 56 7 3 13 14 13 24 0 10 5 19 10 19 6 0 10 14 10 30 0
17 -4 30 -10 30 -5 0 -10 7 -10 15 0 9 -6 18 -14 21 -9 3 -12 12 -8 22 5 15 4
15 -11 3 -16 -12 -22 -8 -18 13 1 5 -7 6 -19 3 -11 -3 -20 0 -20 6 0 7 -7 3
-15 -7 -10 -14 -15 -15 -15 -6 0 9 -5 7 -15 -6 -8 -12 -29 -27 -47 -35 -18 -7
-40 -21 -50 -31 -10 -10 -23 -16 -29 -13 -5 4 -8 3 -7 -2 2 -4 -1 -9 -6 -10
-5 -1 -12 -7 -16 -13 -5 -9 -10 -5 -15 10 -5 16 -3 26 9 32 9 5 30 22 45 37
16 15 44 38 62 52 19 13 40 29 48 37 7 7 19 11 25 9 8 -3 11 5 8 24 -2 16 -5
29 -7 29 -1 0 -42 -33 -92 -72z"/>
<path d="M2293 1266 c-27 -12 -29 -22 -8 -30 8 -3 15 -1 15 4 0 5 13 8 30 7
16 -1 30 -7 30 -13 0 -16 23 -24 90 -31 38 -4 60 -2 64 6 8 12 5 12 -59 15
-22 0 -55 9 -72 19 -18 10 -33 14 -33 11 0 -4 -8 -1 -17 8 -14 11 -23 12 -40
4z"/>
<path d="M2300 1205 c0 -8 9 -15 20 -15 11 0 20 2 20 5 0 2 -9 9 -20 15 -16 9
-20 8 -20 -5z"/>
<path d="M2354 1188 c-4 -7 -3 -8 4 -4 6 4 18 -5 26 -21 13 -24 15 -25 16 -8
0 25 -35 50 -46 33z"/>
<path d="M2116 1167 c3 -8 11 -14 19 -14 11 0 12 4 4 14 -6 7 -15 13 -20 13
-5 0 -6 -6 -3 -13z"/>
<path d="M2302 1175 c18 -47 34 -65 64 -71 18 -3 40 -2 49 4 14 7 6 11 -34 16
-28 4 -51 10 -51 14 0 5 -7 17 -16 28 -8 10 -14 15 -12 9z"/>
<path d="M2744 1118 c24 -14 193 -58 224 -58 19 0 33 19 15 21 -46 4 -78 11
-88 19 -7 6 -26 7 -43 4 -24 -5 -33 -2 -38 10 -3 9 -10 16 -16 16 -5 0 -6 -4
-3 -10 3 -5 1 -10 -4 -10 -6 0 -11 4 -11 8 0 4 -12 9 -27 10 -25 1 -26 0 -9
-10z"/>
<path d="M1373 1097 c-4 -6 -20 -18 -35 -26 -15 -8 -25 -18 -22 -23 3 -4 -1
-8 -9 -8 -8 0 -28 -13 -43 -28 -16 -16 -50 -44 -76 -62 -27 -18 -48 -38 -48
-44 0 -7 3 -7 8 1 5 7 13 9 22 3 12 -8 63 18 80 41 12 15 130 109 137 109 4
-1 21 -21 37 -47 27 -41 28 -46 12 -55 -18 -10 -97 -78 -157 -134 -20 -19 -39
-34 -42 -34 -3 0 -19 23 -36 50 -17 28 -35 50 -40 50 -5 0 -14 -13 -21 -30 -7
-16 -18 -30 -24 -30 -6 0 -19 -7 -29 -15 -18 -13 -17 -16 13 -60 29 -42 30
-48 17 -63 -14 -16 -10 -28 56 -134 40 -65 82 -130 94 -145 l23 -28 -10 28
c-5 15 -9 31 -8 35 2 11 -19 58 -34 73 -24 25 -48 68 -48 86 0 15 -2 16 -10 3
-8 -12 -10 -11 -10 6 0 12 -6 27 -14 33 -10 8 -12 24 -9 52 4 27 1 45 -9 57
-26 30 -28 49 -6 68 17 16 21 17 32 4 6 -8 26 -28 43 -44 l32 -29 68 55 c37
30 76 57 86 61 9 3 17 13 17 21 0 9 11 18 25 22 14 3 22 10 19 15 -3 5 -1 9 4
9 22 0 18 59 -4 87 -13 15 -23 34 -24 41 0 7 -6 12 -12 11 -29 -3 -40 2 -34
16 7 18 0 20 -11 2z"/>
<path d="M2291 1091 c7 -10 19 -18 28 -17 11 1 16 -8 17 -25 1 -38 11 -48 44
-46 18 1 25 6 19 12 -11 11 -12 35 -1 35 5 0 15 -12 22 -27 15 -29 17 -37 19
-63 1 -17 44 -21 58 -6 4 5 3 6 -3 3 -6 -4 -18 1 -26 11 -17 19 -31 92 -18 92
8 0 23 30 17 36 -8 8 -67 -28 -82 -49 -8 -11 -16 -19 -17 -16 -2 2 -10 18 -18
34 -9 17 -21 30 -27 30 -6 0 -15 3 -19 8 -15 14 -24 7 -13 -12z"/>
<path d="M2743 1045 c0 -8 4 -12 8 -9 4 2 10 0 14 -6 6 -9 -10 -14 -42 -13 -7
1 -13 -5 -13 -13 0 -8 -7 -14 -17 -14 -9 0 -13 -3 -10 -6 3 -4 22 1 42 10 20
10 52 20 71 23 37 6 38 15 1 20 -12 2 -26 8 -31 13 -14 14 -23 12 -23 -5z"/>
<path d="M2800 988 c0 -21 43 -36 68 -25 24 11 28 22 12 32 -5 3 -10 -1 -10
-9 0 -20 -26 -21 -34 -1 -7 18 -36 20 -36 3z"/>
<path d="M1695 928 c2 -23 9 -44 15 -46 8 -3 10 0 6 7 -4 6 -1 11 8 11 20 0
20 4 1 40 -22 42 -34 37 -30 -12z"/>
<path d="M1730 962 c0 -5 7 -13 16 -16 10 -4 14 -1 12 6 -5 15 -28 23 -28 10z"/>
<path d="M1588 939 c-25 -14 -23 -32 3 -24 18 6 20 4 14 -17 l-7 -23 17 23 c9
12 21 20 26 17 13 -9 11 9 -3 23 -14 14 -27 15 -50 1z"/>
<path d="M2880 930 c-23 -7 -23 -7 10 -11 47 -5 100 1 100 12 0 11 -74 10
-110 -1z"/>
<path d="M2404 902 c3 -5 -8 -8 -24 -7 -21 1 -31 -4 -35 -16 -7 -20 21 -78 42
-92 7 -4 24 -25 38 -45 14 -20 25 -30 25 -23 0 8 -22 46 -49 86 l-48 72 47 1
48 1 44 -67 c58 -87 80 -130 73 -142 -3 -6 3 -10 14 -10 14 0 23 -9 27 -25 3
-14 13 -25 20 -25 12 0 12 4 -2 25 -8 13 -12 30 -8 36 4 8 3 9 -4 5 -7 -4 -14
3 -18 19 -3 14 -12 25 -19 25 -7 0 -15 8 -19 18 -3 9 -18 37 -32 62 -14 25
-27 50 -28 55 -5 27 -24 43 -59 49 -23 4 -37 3 -33 -2z"/>
<path d="M1080 870 c-18 -16 -42 -30 -51 -30 -12 0 -16 -5 -13 -15 4 -9 1 -15
-7 -15 -7 0 -27 -14 -45 -31 -28 -28 -31 -34 -22 -59 5 -16 16 -31 23 -34 11
-4 12 0 4 18 -9 20 -2 31 77 109 48 48 83 87 78 87 -6 0 -26 -13 -44 -30z"/>
<path d="M1652 880 c3 -27 25 -56 35 -47 3 4 -4 21 -16 39 -20 31 -22 31 -19
8z"/>
<path d="M1617 849 c-3 -11 -3 -27 0 -35 4 -11 7 -11 19 1 18 17 18 29 0 22
-10 -4 -12 0 -9 14 3 10 3 19 0 19 -2 0 -7 -9 -10 -21z"/>
<path d="M1809 760 c11 -20 26 -47 33 -60 8 -14 27 -45 43 -70 17 -25 32 -50
35 -56 19 -41 67 -104 79 -104 10 0 8 7 -7 23 -12 13 -22 28 -22 34 0 6 -7 13
-15 17 -8 3 -15 10 -15 16 0 6 6 8 13 5 6 -4 5 -1 -3 7 -9 7 -27 31 -40 53
-13 22 -26 42 -29 45 -4 3 -12 17 -20 32 -8 15 -27 42 -43 60 l-30 33 21 -35z"/>
<path d="M1670 732 c0 -8 9 -25 20 -39 26 -33 26 -17 0 22 -11 17 -20 24 -20
17z"/>
<path d="M1018 706 c-10 -7 -18 -18 -18 -25 0 -6 -6 -11 -12 -11 -8 0 -9 -3
-3 -8 6 -4 16 -25 24 -47 13 -36 56 -112 72 -125 4 -4 20 -39 20 -47 0 -1 19
-22 41 -47 78 -87 56 -41 -79 163 -49 72 -53 91 -20 91 31 0 45 16 39 46 -5
27 -35 32 -64 10z"/>
<path d="M1641 678 c21 -40 51 -79 56 -74 3 3 -6 21 -21 40 -14 19 -26 39 -26
45 0 6 -5 11 -10 11 -7 0 -7 -8 1 -22z"/>
<path d="M1730 672 c6 -12 8 -28 4 -34 -4 -7 -3 -8 4 -4 16 10 15 18 -4 42
-14 18 -15 18 -4 -4z"/>
<path d="M2393 679 c3 -9 0 -22 -6 -28 -8 -8 -8 -11 0 -11 19 0 25 18 13 37
-9 15 -11 15 -7 2z"/>
<path d="M2554 612 c-17 -12 -10 -37 10 -34 12 2 16 -1 11 -10 -6 -10 -5 -10
5 -1 10 9 10 15 -2 31 -8 12 -18 18 -24 14z"/>
<path d="M2397 589 c-9 -5 -22 -7 -27 -4 -6 3 -10 2 -10 -4 0 -5 -9 -13 -20
-16 -20 -6 -120 -95 -108 -95 10 0 -38 -47 -53 -52 -7 -2 -17 -25 -24 -51 -10
-38 -9 -47 1 -47 7 0 16 5 20 12 5 7 3 8 -6 3 -17 -11 -4 11 27 45 13 14 43
50 67 81 25 31 70 73 100 93 31 20 56 39 56 42 0 6 -2 5 -23 -7z"/>
<path d="M2924 565 c-16 -40 -17 -45 -6 -45 5 0 16 18 25 40 19 49 2 54 -19 5z"/>
<path d="M1700 585 c0 -15 18 -40 24 -34 3 3 -1 14 -9 25 -8 10 -14 15 -15 9z"/>
<path d="M2323 463 c-167 -189 -210 -253 -172 -253 6 0 9 7 5 15 -3 8 -1 16 4
16 6 1 16 2 23 3 6 0 12 8 12 16 0 18 17 40 28 33 4 -2 7 1 7 7 0 6 6 17 13
25 6 7 20 22 30 34 10 12 23 19 29 15 6 -4 8 -3 4 4 -3 6 0 16 7 24 8 7 12 19
9 26 -2 8 2 10 14 5 12 -4 15 -3 10 5 -4 7 -2 12 3 12 6 0 11 7 11 15 0 8 4
15 9 15 11 0 26 39 18 46 -2 3 -31 -26 -64 -63z"/>
<path d="M2026 463 c4 -16 2 -28 -7 -34 -11 -6 -11 -11 -2 -20 16 -16 20 -11
27 24 2 14 7 31 10 36 3 5 -3 11 -14 14 -17 4 -19 1 -14 -20z"/>
<path d="M2416 409 c-33 -39 -34 -61 -1 -25 14 15 29 25 33 22 4 -2 8 4 8 15
0 27 -10 24 -40 -12z"/>
<path d="M1200 396 c0 -9 7 -16 16 -16 9 0 14 5 12 12 -6 18 -28 21 -28 4z"/>
<path d="M2065 390 c-8 -25 3 -80 16 -80 10 0 49 73 49 91 0 7 -11 0 -25 -15
-30 -32 -33 -32 -27 -1 5 30 -4 33 -13 5z"/>
<path d="M1776 356 c-25 -25 -46 -50 -46 -56 0 -6 -4 -9 -9 -5 -5 3 -17 -5
-25 -17 -9 -12 -16 -18 -16 -13 0 6 -9 -5 -20 -22 -11 -18 -25 -33 -30 -33 -6
0 -9 -4 -6 -9 3 -5 -1 -12 -10 -15 -8 -3 -13 -10 -9 -15 3 -5 -4 -13 -16 -16
-11 -4 -18 -9 -15 -12 5 -5 -8 -21 -71 -89 -18 -19 -33 -40 -33 -47 0 -16 284
280 334 348 16 22 36 12 29 -14 -2 -10 -69 -90 -149 -177 -79 -87 -141 -160
-139 -162 2 -2 16 -1 31 2 14 4 24 10 20 13 -3 3 7 17 22 30 15 13 32 28 37
34 6 6 20 21 33 33 12 13 22 28 22 33 0 16 85 100 98 95 7 -2 10 2 6 12 -4 9
0 18 9 22 9 3 23 17 32 30 15 23 15 27 -5 59 -12 19 -23 35 -25 35 -1 0 -23
-20 -49 -44z"/>
<path d="M2331 309 c-18 -22 -30 -43 -26 -47 4 -4 12 2 19 12 6 10 21 28 34
39 22 21 29 37 15 37 -5 0 -23 -19 -42 -41z"/>
<path d="M1200 335 c0 -15 18 -40 24 -34 3 3 -1 14 -9 25 -8 10 -14 15 -15 9z"/>
<path d="M2106 304 c-9 -23 -2 -28 13 -10 7 8 8 17 3 20 -6 3 -13 -1 -16 -10z"/>
<path d="M2097 240 c3 -11 9 -20 13 -20 5 0 6 9 3 20 -3 11 -9 20 -13 20 -5 0
-6 -9 -3 -20z"/>
<path d="M2270 235 c-20 -24 -6 -28 15 -5 10 11 13 20 8 20 -6 0 -16 -7 -23
-15z"/>
<path d="M2230 187 c0 -9 -9 -22 -21 -30 -20 -15 -20 -15 7 -53 20 -29 24 -33
19 -14 -4 14 -12 26 -16 28 -12 5 -11 32 0 32 12 0 25 39 17 47 -3 4 -6 -1 -6
-10z"/>
<path d="M1943 167 c-6 -6 -13 -20 -16 -30 -9 -25 12 -18 30 10 15 23 2 41
-14 20z"/>
<path d="M1976 115 c-14 -13 -26 -27 -26 -31 0 -4 8 0 18 9 10 10 24 17 30 17
7 0 12 7 12 15 0 20 -3 19 -34 -10z"/>
<path d="M2120 101 c0 -11 42 -43 48 -37 5 5 -30 46 -40 46 -5 0 -8 -4 -8 -9z"/>
<path d="M1888 41 c-16 -14 -28 -29 -28 -33 0 -13 39 4 71 32 33 27 33 27 9
27 -14 0 -37 -12 -52 -26z"/>
<path d="M1952 20 c-10 -17 -10 -20 3 -20 8 0 15 9 15 20 0 11 -1 20 -3 20 -1
0 -8 -9 -15 -20z"/>
</g>
</svg>
