<?xml version="1.0" standalone="no"?>
<!DOCTYPE svg PUBLIC "-//W3C//DTD SVG 20010904//EN"
 "http://www.w3.org/TR/2001/REC-SVG-20010904/DTD/svg10.dtd">
<svg version="1.0" xmlns="http://www.w3.org/2000/svg"
 width="300.000000pt" height="451.000000pt" viewBox="0 0 300.000000 451.000000"
 preserveAspectRatio="xMidYMid meet">
<metadata>
Created by potrace 1.10, written by Peter Selinger 2001-2011
</metadata>
<g transform="translate(0.000000,451.000000) scale(0.100000,-0.100000)"
fill="#a52a2a" stroke="none">
<path d="M1104 3927 c7 -30 -9 -71 -25 -62 -5 4 -7 11 -4 16 4 5 0 9 -8 9 -10
0 -13 -7 -10 -20 3 -13 -1 -22 -11 -26 -21 -8 -25 -4 -28 30 -2 21 -7 26 -23
24 -17 -3 -20 -10 -18 -45 1 -24 -3 -43 -8 -43 -11 0 -2 -41 11 -50 5 -4 2
-123 -12 -375 -2 -52 -1 -60 14 -57 12 2 16 -4 15 -18 -1 -12 -7 -18 -14 -16
-14 6 -45 -33 -37 -46 8 -12 -11 -10 -42 7 -31 16 -45 5 -24 -20 9 -10 7 -14
-7 -18 -14 -4 -13 -5 5 -6 12 0 22 4 22 9 0 6 5 10 11 10 6 0 9 -6 6 -14 -3
-7 0 -19 6 -25 15 -15 1 -26 -16 -12 -16 12 -43 6 -69 -16 -11 -10 -18 -11
-23 -4 -3 6 -17 11 -31 11 -14 0 -22 4 -19 10 16 26 -161 43 -219 20 -32 -12
-33 1 -4 28 13 11 47 42 77 68 38 35 55 45 59 35 3 -10 8 -7 18 10 l13 24 1
-23 c0 -15 -8 -26 -24 -32 -31 -11 -47 -35 -18 -26 11 4 23 2 27 -3 4 -7 15
-5 31 6 20 12 30 14 49 5 17 -8 25 -8 27 0 3 8 9 8 24 0 19 -11 19 -11 -1 -12
-11 -1 -14 -4 -7 -7 6 -2 12 -12 12 -20 0 -11 6 -9 25 8 25 24 25 24 5 41 -21
17 -27 38 -10 38 6 0 13 -7 16 -15 4 -8 12 -15 20 -15 8 0 14 -8 14 -19 0 -14
6 -17 25 -13 38 7 30 25 -22 47 -26 11 -61 27 -78 36 -17 8 -37 13 -43 11 -21
-7 -13 -28 16 -42 27 -14 27 -14 3 -18 -41 -7 -68 6 -74 34 -4 20 6 38 47 84
44 50 51 55 54 36 2 -11 8 -25 14 -31 6 -7 7 5 3 36 -6 41 -5 47 14 52 12 3
21 12 21 21 0 18 -15 21 -25 6 -11 -18 -23 -11 -30 18 -9 37 -64 132 -77 132
-5 0 0 -16 12 -35 33 -53 49 -89 56 -123 5 -26 0 -37 -38 -79 -25 -26 -50 -57
-56 -68 -9 -17 -11 -14 -21 25 -29 113 -106 232 -188 288 -33 23 -63 29 -63
12 0 -5 7 -10 16 -10 32 0 102 -61 144 -125 44 -67 85 -188 72 -210 -7 -13
-136 -125 -143 -125 -2 0 -4 19 -4 43 0 23 -10 62 -21 87 -12 25 -31 65 -43
90 -21 46 -109 145 -150 168 -15 9 -27 10 -33 4 -7 -7 -2 -12 12 -17 84 -27
199 -206 215 -337 7 -53 0 -74 -28 -82 -15 -4 -18 -8 -10 -14 9 -6 6 -15 -12
-36 -14 -16 -27 -45 -31 -65 -4 -20 -16 -46 -27 -58 -11 -13 -17 -23 -13 -23
4 0 0 -7 -8 -16 -9 -8 -16 -24 -16 -35 0 -11 -7 -31 -16 -44 -9 -14 -12 -25
-7 -25 5 0 24 33 42 73 18 39 36 74 40 77 3 3 17 29 30 57 36 78 55 87 186 90
101 2 108 1 90 -13 -11 -8 -19 -20 -17 -25 1 -5 -5 -9 -13 -9 -8 0 -15 -6 -15
-13 0 -8 -11 -14 -28 -14 -16 0 -49 -9 -74 -21 -55 -27 -55 -27 -62 3 -4 16
-13 25 -27 25 -16 0 -19 -4 -13 -22 3 -13 14 -32 23 -43 8 -11 17 -22 18 -24
2 -2 11 3 21 12 18 16 131 57 158 57 8 0 11 6 8 15 -4 8 -1 15 5 15 6 0 11 -7
11 -15 0 -8 5 -15 11 -15 5 0 8 4 5 9 -4 5 0 12 6 14 8 3 5 6 -5 6 -12 1 -17
7 -15 18 4 20 28 30 28 11 0 -12 79 -39 123 -41 9 -1 17 -7 17 -14 0 -6 9 -19
21 -27 12 -8 18 -19 14 -25 -8 -14 8 -14 21 -1 8 8 11 -3 12 -35 0 -25 -4 -47
-9 -51 -16 -9 -10 -71 7 -78 8 -3 12 -10 9 -16 -3 -5 -2 -10 2 -10 5 0 14 9
21 20 7 12 17 18 21 15 5 -3 31 13 57 36 27 22 61 43 77 46 15 3 27 10 27 15
0 6 6 8 13 5 7 -2 44 1 82 9 40 7 116 12 178 10 59 -1 107 2 107 7 0 5 14 5
33 1 17 -4 37 -7 44 -7 6 0 9 -6 6 -13 -3 -9 -49 -12 -181 -11 -146 1 -188 -2
-239 -17 -37 -11 -60 -23 -56 -29 3 -6 1 -7 -5 -3 -17 10 -72 -22 -71 -42 0
-10 3 -12 6 -4 2 6 11 12 19 12 8 0 14 4 14 9 0 10 14 9 42 -3 14 -6 15 -11 5
-27 -6 -10 -17 -19 -24 -19 -7 0 -13 -5 -13 -11 0 -5 -4 -8 -8 -5 -4 3 -9 -10
-9 -27 -2 -45 -6 -60 -22 -73 -9 -7 -10 -13 -3 -17 17 -11 2 -47 -20 -47 -11
0 -22 -9 -25 -20 -3 -11 -14 -20 -25 -20 -10 0 -17 4 -13 10 7 11 -4 60 -14
60 -10 0 0 -83 11 -97 7 -9 7 -13 -1 -13 -6 0 -11 -9 -11 -20 0 -11 -4 -20
-10 -20 -5 0 -10 -9 -10 -20 0 -13 -10 -24 -24 -30 -14 -5 -30 -18 -36 -30 -6
-11 -16 -20 -23 -20 -7 0 -24 -7 -39 -14 -20 -11 -28 -12 -28 -3 0 7 20 21 45
32 25 11 45 26 45 35 0 10 -3 11 -8 3 -15 -23 -61 -31 -153 -28 -95 4 -163 20
-222 52 -82 45 -139 87 -174 129 -20 26 -39 42 -41 36 -6 -19 78 -110 121
-132 15 -7 27 -18 27 -24 0 -6 12 -12 26 -12 14 -1 34 -10 45 -20 10 -9 19
-14 19 -10 0 4 12 -2 26 -13 14 -11 32 -17 41 -14 8 3 19 0 25 -8 6 -9 11 -10
14 -3 3 8 20 8 56 2 29 -5 62 -8 75 -5 23 4 31 -7 13 -18 -6 -3 -10 -11 -10
-17 0 -10 51 -5 87 9 10 4 14 2 11 -7 -2 -7 -13 -14 -24 -16 -10 -1 -38 -6
-61 -9 -36 -5 -42 -4 -37 9 3 9 1 16 -4 16 -6 0 -12 -10 -14 -22 -3 -21 -10
-24 -73 -29 -38 -4 -72 -5 -74 -3 -12 11 71 32 104 27 28 -4 36 -3 31 6 -4 6
-11 9 -16 6 -12 -7 -41 6 -34 16 3 5 -2 6 -11 3 -8 -4 -21 -2 -28 4 -6 6 -28
11 -47 13 -19 2 -39 5 -45 8 -5 3 -18 7 -28 8 -10 2 -31 10 -47 18 -16 8 -36
15 -45 15 -8 0 -15 5 -15 11 0 5 6 7 13 3 6 -4 3 2 -7 14 -22 25 -48 30 -40 7
4 -10 2 -14 -7 -10 -8 2 -27 -7 -44 -20 -27 -22 -30 -30 -29 -77 1 -29 7 -66
14 -83 7 -16 14 -37 15 -45 1 -8 9 -28 19 -45 14 -26 16 -27 9 -5 -4 14 -8 48
-10 75 -1 28 -5 73 -9 101 -5 42 -3 52 11 57 31 12 75 -21 99 -74 12 -28 25
-47 29 -43 4 4 7 0 7 -9 0 -9 8 -21 18 -26 15 -9 15 -10 -5 -11 -39 0 -25 -20
15 -22 58 -2 59 -2 79 -21 11 -9 22 -14 26 -11 3 4 4 -29 2 -72 -3 -55 0 -88
10 -109 l14 -30 -2 50 c-1 28 1 55 5 60 4 6 5 23 4 38 -4 31 1 32 28 12 11 -8
25 -15 30 -15 6 0 3 5 -6 11 -10 5 -18 18 -18 27 0 25 -38 82 -54 82 -8 0 -19
-7 -24 -16 -8 -14 -10 -13 -15 5 -3 12 -1 19 3 16 5 -3 11 -1 15 5 3 5 21 10
38 10 18 0 75 11 127 25 129 35 130 35 130 47 0 6 22 35 50 65 28 30 55 72 62
94 14 48 66 92 107 92 27 0 28 1 13 30 -26 51 -11 105 43 154 65 60 145 83
281 83 91 0 106 -2 121 -19 9 -11 21 -17 26 -14 4 3 -2 16 -14 29 l-22 24 30
0 c27 0 32 4 37 35 4 19 10 35 14 35 4 0 12 11 19 25 15 33 4 32 -23 -2 l-23
-28 10 45 c6 25 18 54 27 65 11 13 7 12 -11 -4 -40 -36 -43 -19 -5 25 33 38
22 39 -20 1 l-22 -21 4 30 c12 76 14 121 5 134 -8 13 -10 13 -18 1 -5 -8 -18
-12 -31 -8 -17 4 -19 3 -10 -9 7 -7 10 -32 8 -54 -2 -25 1 -41 9 -44 12 -5 43
-95 43 -127 0 -14 -5 -16 -27 -10 -16 4 -98 7 -183 6 -169 -2 -232 -16 -312
-71 -20 -14 -42 -23 -47 -19 -6 3 -11 -2 -11 -13 0 -11 -7 -25 -15 -32 -10 -9
-15 -9 -15 -1 0 6 -5 11 -11 11 -6 0 -9 -6 -6 -14 3 -8 -1 -17 -9 -20 -9 -3
-14 1 -14 12 0 10 -5 23 -12 30 -13 13 8 46 24 36 7 -4 7 2 2 17 -5 13 -8 37
-8 53 1 21 -6 33 -27 45 -16 9 -29 19 -29 24 0 12 24 8 47 -8 22 -15 38 -55
21 -55 -5 0 -1 -13 9 -30 9 -16 21 -30 25 -30 8 0 12 29 10 62 -1 11 3 15 13
12 9 -4 15 0 15 10 0 10 -6 13 -15 10 -8 -4 -15 -1 -15 5 0 6 3 11 8 11 4 0 7
14 8 30 1 17 9 39 18 49 10 11 13 22 8 25 -15 9 -2 59 27 101 32 47 84 85 117
85 13 0 24 4 24 8 0 10 44 32 62 32 6 0 3 -9 -7 -20 -10 -11 -22 -17 -26 -14
-5 3 -9 -4 -9 -15 0 -15 4 -19 17 -14 10 4 14 2 10 -5 -4 -6 6 -17 23 -25 30
-15 30 -15 32 11 1 15 1 42 -1 60 -2 27 2 32 20 32 16 0 20 -5 17 -18 -5 -17
-2 -18 36 -8 23 6 45 15 49 21 6 7 10 6 14 -2 6 -16 43 -17 43 -2 0 13 42 1
52 -15 4 -6 8 -25 8 -43 0 -17 6 -34 13 -36 10 -4 10 -6 0 -6 -7 -1 -13 -8
-13 -17 0 -14 3 -14 15 -4 8 7 15 28 15 47 0 20 4 32 10 28 6 -3 10 1 10 9 0
10 -6 13 -17 9 -16 -6 -16 -5 -4 10 8 10 12 18 10 20 -2 1 -13 7 -24 13 -11 6
-20 16 -20 22 0 7 -11 22 -24 34 -23 22 -29 23 -130 16 -147 -9 -206 -28 -276
-89 -19 -17 -59 -43 -88 -58 -37 -18 -52 -31 -49 -43 3 -15 6 -15 37 -2 49 20
54 18 22 -11 -15 -14 -27 -31 -27 -37 0 -7 -5 -6 -15 2 -11 9 -15 9 -15 1 0
-6 6 -14 14 -17 11 -4 15 -22 14 -65 -1 -62 -9 -73 -30 -39 -7 11 -19 20 -26
20 -9 0 -12 6 -8 16 3 8 2 12 -4 9 -6 -3 -10 5 -10 20 0 19 5 25 17 23 22 -4
35 46 21 78 -6 13 -15 21 -21 17 -7 -4 -8 10 -4 39 3 24 9 122 13 216 7 161
15 207 30 167 6 -13 8 -14 15 -3 13 20 11 28 -9 28 -11 0 -18 8 -19 20 -1 11
4 20 13 20 8 0 14 -4 14 -9 0 -5 14 -14 30 -21 35 -15 36 -17 10 -50 -11 -14
-20 -29 -19 -35 0 -9 12 4 44 48 12 18 16 17 76 -11 129 -60 159 -70 159 -54
0 9 -33 24 -131 61 -105 41 -129 54 -118 67 8 9 5 11 -10 7 -12 -3 -21 -1 -21
6 0 6 16 11 36 11 l36 0 -7 43 c-4 23 -12 47 -17 52 -7 7 -8 1 -4 -18z m400
-433 c25 -4 46 -10 46 -14 0 -4 -53 -11 -117 -14 -116 -8 -195 -28 -252 -65
-20 -13 -23 -13 -19 -1 7 23 101 70 170 85 73 16 108 17 172 9z m-174 -114
c-19 -13 -30 -13 -30 0 0 6 10 10 23 10 18 0 19 -2 7 -10z m-343 -225 c7 -20
-2 -29 -19 -19 -7 5 -23 7 -35 5 -43 -5 -50 14 -8 20 22 3 44 7 48 8 4 0 10
-6 14 -14z m-37 -78 c0 -4 -9 -3 -20 3 -11 6 -20 15 -20 20 0 6 9 5 20 -2 11
-7 20 -16 20 -21z m330 -116 c3 -1 -8 -10 -25 -21 -28 -18 -30 -18 -36 -2 -11
30 -4 32 61 23z m-80 -26 c0 -8 -4 -15 -10 -15 -5 0 -10 7 -10 15 0 8 5 15 10
15 6 0 10 -7 10 -15z m-675 -474 c6 -3 19 -7 29 -8 11 -2 25 -8 32 -14 7 -6
17 -8 22 -6 4 3 14 2 22 -3 11 -7 8 -11 -12 -21 -16 -7 -24 -17 -21 -25 3 -9
-3 -14 -18 -15 -13 0 -32 -2 -41 -4 -11 -2 -20 5 -24 18 -3 12 -17 36 -30 54
-13 17 -24 34 -24 38 0 6 48 -4 65 -14z m62 -126 c0 -8 -6 -15 -12 -15 -6 0
-12 7 -12 15 0 8 6 15 12 15 6 0 12 -7 12 -15z"/>
<path d="M542 2394 c9 -9 21 -13 28 -9 14 9 -5 25 -30 25 -12 0 -12 -3 2 -16z"/>
<path d="M622 3793 c-17 -7 -5 -23 18 -23 11 0 36 -15 56 -32 21 -18 35 -26
32 -18 -7 21 -90 78 -106 73z"/>
<path d="M540 3758 c-18 -8 -21 -12 -9 -15 8 -2 28 3 45 12 22 11 25 15 9 14
-11 0 -31 -5 -45 -11z"/>
<path d="M365 3720 c-3 -5 -16 -10 -29 -10 -12 0 -26 -3 -30 -7 -3 -4 -16 -8
-28 -10 -12 -2 -36 -11 -52 -20 -48 -25 -97 -49 -140 -69 -38 -17 -94 -64 -76
-64 4 0 21 7 37 15 15 8 60 28 98 46 39 17 74 37 78 45 4 8 18 14 31 14 12 0
46 11 74 25 29 14 56 25 62 25 5 0 10 5 10 10 0 6 -6 10 -14 10 -8 0 -18 -4
-21 -10z"/>
<path d="M190 3580 c0 -5 5 -10 12 -10 6 0 26 -11 45 -26 18 -14 33 -21 33
-16 0 12 -65 62 -79 62 -6 0 -11 -4 -11 -10z"/>
<path d="M1530 3564 c-8 -10 -10 -15 -4 -11 20 12 128 -12 144 -31 8 -10 50
-35 92 -55 81 -39 163 -117 196 -185 15 -30 15 -35 1 -45 -8 -7 -13 -20 -11
-29 2 -10 -1 -18 -6 -18 -5 0 -5 -14 2 -34 9 -29 13 -33 26 -23 10 8 9 5 -2
-9 -21 -25 -23 -35 -5 -28 13 5 55 -49 70 -88 3 -10 22 -24 41 -32 23 -10 48
-34 73 -71 42 -65 58 -59 19 8 -28 48 -69 87 -90 87 -7 0 -19 13 -25 28 -6 15
-23 41 -36 56 -18 21 -23 36 -19 55 6 30 6 33 -1 86 -15 99 -96 197 -213 255
-37 18 -82 46 -100 61 -18 16 -40 29 -50 29 -9 0 -33 3 -52 6 -27 5 -39 2 -50
-12z m452 -374 c5 -35 -1 -43 -22 -29 -13 8 -13 10 -1 18 8 5 12 18 8 30 -3
12 -2 19 3 16 4 -3 10 -19 12 -35z"/>
<path d="M45 3530 c-3 -5 -4 -10 0 -10 3 0 0 -10 -6 -22 -11 -21 -11 -22 5 -9
13 11 22 12 42 2 14 -6 30 -9 35 -6 5 4 9 2 9 -3 0 -5 8 -12 18 -14 23 -6 119
-149 132 -197 5 -20 19 -54 31 -76 l21 -40 -6 50 c-11 95 -102 247 -182 307
-37 28 -87 37 -99 18z"/>
<path d="M215 3510 c-9 -15 45 -80 66 -80 28 0 23 22 -14 58 -35 34 -42 37
-52 22z"/>
<path d="M290 3517 c0 -2 20 -35 45 -73 45 -69 52 -75 36 -32 -8 21 -81 116
-81 105z"/>
<path d="M875 3490 c-4 -6 -8 -26 -9 -43 -1 -17 -7 -32 -13 -34 -23 -8 -46
-30 -36 -36 20 -13 51 23 61 70 11 49 10 63 -3 43z"/>
<path d="M1003 3445 c0 -27 2 -38 4 -22 2 15 2 37 0 50 -2 12 -4 0 -4 -28z"/>
<path d="M1670 3471 c0 -5 34 -26 76 -47 42 -20 81 -46 87 -56 12 -19 37 -25
37 -9 0 14 -69 65 -127 95 -55 28 -73 32 -73 17z"/>
<path d="M1672 3418 c3 -7 30 -25 61 -40 32 -16 57 -34 57 -43 0 -17 9 -19 29
-6 21 14 5 29 -69 66 -77 39 -84 41 -78 23z"/>
<path d="M1393 3393 c-13 -2 -23 -8 -23 -13 0 -5 40 -8 90 -7 49 1 90 6 90 10
0 5 5 5 12 1 7 -4 8 -3 4 4 -7 12 -123 15 -173 5z"/>
<path d="M1241 3367 c0 -10 -5 -16 -9 -13 -4 2 -14 0 -22 -5 -12 -7 -13 -11
-2 -18 12 -7 12 -12 0 -30 -9 -15 -10 -26 -2 -38 13 -21 44 -26 44 -7 0 17 31
19 48 2 9 -9 12 -8 12 5 0 10 -8 17 -19 17 -22 0 -32 30 -19 54 6 12 5 16 -6
16 -8 0 -17 8 -19 18 -4 16 -5 16 -6 -1z m13 -54 c9 -23 -14 -45 -34 -32 -13
8 -13 11 2 23 10 7 15 16 11 19 -3 4 -2 7 4 7 6 0 14 -8 17 -17z"/>
<path d="M395 3331 c7 -22 16 -59 20 -83 l6 -43 -53 -32 -53 -32 40 4 c60 4
96 24 90 49 -3 12 -10 43 -15 70 -10 45 -35 106 -45 106 -2 0 2 -18 10 -39z"/>
<path d="M1510 3344 c0 -15 25 -36 33 -27 15 15 7 42 -13 40 -11 -1 -20 -6
-20 -13z"/>
<path d="M1152 3306 c-17 -27 -32 -56 -32 -65 0 -9 12 2 27 24 14 22 31 43 36
46 5 4 7 15 5 25 -2 14 -11 7 -36 -30z"/>
<path d="M1736 3314 c-9 -8 -21 -12 -27 -8 -8 4 -9 3 -5 -4 10 -17 46 -15 46
2 0 8 6 17 13 19 8 4 9 6 0 6 -6 1 -19 -6 -27 -15z"/>
<path d="M1873 3318 c4 -13 1 -18 -11 -18 -15 0 -15 -2 -2 -10 20 -13 27 -12
33 4 3 8 -2 20 -10 28 -15 11 -16 11 -10 -4z"/>
<path d="M1757 3283 c-10 -18 -21 -33 -25 -33 -4 0 -13 -24 -20 -53 -21 -89
-14 -121 20 -90 12 10 18 12 18 4 0 -7 5 -9 10 -6 6 3 10 -1 10 -9 0 -19 -16
-21 -23 -3 -3 9 -8 9 -18 -2 -10 -10 -11 -15 -2 -18 7 -2 9 -12 6 -21 -5 -14
-3 -15 8 -4 16 15 69 16 69 1 0 -5 4 -8 9 -4 6 3 15 -3 21 -12 10 -16 10 -16
5 4 -3 12 -1 24 5 28 8 5 8 10 0 20 -8 10 -8 15 1 21 8 4 9 3 5 -4 -10 -17 19
-15 33 1 17 21 -8 67 -36 67 -25 0 -31 -15 -10 -24 6 -3 1 -3 -13 1 -14 3 -31
13 -37 22 -12 14 -12 14 -8 0 8 -21 -43 -45 -59 -28 -8 9 -6 10 8 5 19 -6 19
-6 3 12 -21 23 -22 42 -2 42 8 0 15 5 15 11 0 5 5 7 10 4 6 -3 10 -1 10 4 0
20 38 11 43 -9 4 -15 14 -20 36 -20 28 0 31 3 31 31 0 19 -4 28 -11 23 -6 -3
-21 -2 -32 4 -12 6 -30 13 -39 15 -9 3 -18 16 -20 29 -3 22 -5 21 -21 -9z m58
-184 c4 -11 4 -23 1 -26 -10 -10 -34 16 -38 42 -4 21 -2 23 13 15 10 -6 21
-19 24 -31z"/>
<path d="M1470 3282 c0 -13 -4 -20 -10 -17 -6 3 -7 -1 -4 -9 7 -18 13 -19 33
-7 11 7 11 13 -3 32 l-16 23 0 -22z"/>
<path d="M1666 3274 c-3 -9 -6 -23 -6 -32 0 -13 5 -11 19 8 19 23 19 40 1 40
-4 0 -11 -7 -14 -16z"/>
<path d="M602 3253 c-18 -7 -32 -14 -32 -16 0 -1 31 -1 68 1 48 3 85 -2 125
-16 57 -19 103 -14 50 6 -58 21 -69 24 -124 31 -37 5 -66 3 -87 -6z"/>
<path d="M1266 3218 c8 -57 14 -61 14 -10 0 22 -4 44 -10 47 -6 4 -7 -10 -4
-37z"/>
<path d="M1498 3234 c-9 -8 3 -44 13 -38 11 7 12 44 1 44 -5 0 -11 -3 -14 -6z"/>
<path d="M1133 3213 c-4 -9 -1 -19 5 -21 7 -2 12 -9 12 -14 0 -6 -3 -8 -7 -5
-3 4 -13 -2 -21 -14 -10 -15 -11 -24 -3 -32 8 -8 11 -6 11 7 0 11 5 16 14 13
9 -4 16 3 18 17 6 29 -1 48 -15 39 -6 -4 -8 0 -4 10 3 10 4 17 1 17 -2 0 -8
-8 -11 -17z"/>
<path d="M1210 3200 c-14 -10 -21 -22 -17 -26 4 -4 7 -2 7 4 0 7 8 12 18 12 9
0 23 4 30 9 11 7 11 9 0 14 -8 3 -25 -3 -38 -13z"/>
<path d="M1360 3203 c0 -6 27 -33 34 -33 16 0 3 28 -14 33 -11 3 -20 3 -20 0z"/>
<path d="M96 3163 c21 -51 21 -58 4 -58 -8 0 -22 20 -32 45 -9 25 -18 38 -19
30 -5 -49 17 -100 43 -95 48 10 56 43 21 88 -29 38 -36 33 -17 -10z"/>
<path d="M1526 3174 c-5 -13 -9 -14 -21 -4 -9 7 -15 8 -15 2 0 -8 22 -22 35
-22 3 0 9 9 15 20 6 11 7 20 1 20 -5 0 -12 -7 -15 -16z"/>
<path d="M233 3164 c4 -18 1 -21 -17 -16 -31 7 -8 -13 29 -25 32 -11 55 -7 55
8 0 5 -3 8 -7 8 -27 -4 -45 4 -54 24 -9 21 -9 21 -6 1z"/>
<path d="M627 3165 c-2 -5 -1 -19 3 -30 6 -18 7 -18 17 -1 5 9 17 18 26 20 32
4 28 14 -7 18 -20 2 -37 -1 -39 -7z"/>
<path d="M1460 3149 c0 -11 4 -18 9 -15 5 3 14 0 20 -8 9 -11 9 -15 -1 -19 -8
-4 -7 -6 5 -6 21 -1 21 4 0 40 -20 34 -33 37 -33 8z"/>
<path d="M1550 3157 c0 -9 -4 -17 -10 -17 -5 0 -10 -16 -10 -35 0 -30 3 -35
24 -35 23 0 56 23 56 39 0 13 -34 9 -49 -6 -7 -8 -16 -11 -19 -8 -4 3 0 10 8
15 8 6 11 10 6 10 -5 0 -3 7 4 15 10 12 10 19 2 27 -9 9 -12 8 -12 -5z"/>
<path d="M1217 3153 c-13 -12 -7 -25 6 -14 8 6 17 8 20 4 4 -3 7 -1 7 5 0 13
-22 16 -33 5z"/>
<path d="M1298 3149 c-9 -22 7 -43 26 -36 20 8 21 27 2 27 -8 0 -16 5 -18 12
-3 8 -6 7 -10 -3z"/>
<path d="M577 3144 c-10 -11 4 -33 18 -28 8 3 11 12 8 20 -5 15 -16 18 -26 8z"/>
<path d="M1080 3135 c9 -11 11 -32 6 -75 -5 -39 -3 -60 3 -60 6 0 11 10 11 23
1 12 1 34 1 49 1 16 5 25 10 22 12 -7 11 -1 -4 27 -7 13 -19 25 -27 27 -11 3
-11 0 0 -13z"/>
<path d="M1370 3127 c0 -7 5 -18 12 -25 14 -14 58 -16 58 -4 0 5 -10 8 -22 7
-32 -3 -41 4 -27 21 9 11 8 14 -5 14 -9 0 -16 -6 -16 -13z"/>
<path d="M1246 3112 c-7 -12 4 -21 31 -27 10 -2 29 -7 43 -11 19 -5 22 -4 14
5 -6 6 -24 14 -40 17 -16 3 -31 10 -35 16 -4 7 -8 7 -13 0z"/>
<path d="M770 3094 c0 -12 -7 -15 -25 -12 -14 3 -25 1 -25 -3 0 -5 7 -9 15 -9
22 0 18 -18 -5 -25 -11 -4 -19 -9 -16 -13 6 -11 -8 -93 -16 -93 -4 0 -18 -10
-32 -22 -27 -24 -24 -42 5 -34 11 3 19 2 19 -3 0 -4 10 -10 22 -14 17 -4 20
-8 11 -17 -8 -8 -17 -7 -34 4 -24 16 -39 20 -134 36 -27 5 -54 11 -60 12 -23
7 -113 -13 -144 -32 -48 -29 -34 -32 34 -8 49 17 66 19 95 10 64 -19 150 -32
162 -25 7 4 10 3 5 -1 -10 -12 49 -36 71 -29 13 5 14 4 3 -4 -11 -8 -9 -11 8
-17 11 -3 21 -11 21 -17 0 -6 -7 -7 -17 -3 -105 44 -192 67 -266 68 -74 2 -87
-1 -130 -26 -49 -29 -70 -31 -44 -6 17 17 11 39 -17 59 -21 15 -25 17 -50 19
-9 1 -13 10 -11 29 4 33 -11 62 -31 62 -8 0 -12 4 -9 10 3 5 0 7 -8 4 -16 -6
-32 -59 -43 -144 -4 -30 -11 -61 -17 -67 -7 -10 -3 -13 14 -14 21 0 22 -1 5
-8 -17 -7 -18 -8 -3 -14 9 -3 19 -2 21 2 3 5 17 9 30 9 18 0 23 -5 19 -17 -3
-10 3 -7 16 8 12 13 21 29 21 36 0 16 -24 26 -36 16 -5 -5 -22 -11 -38 -15
-26 -6 -28 -5 -22 16 3 13 12 56 18 96 8 51 16 72 26 72 11 0 13 -8 9 -29 -3
-15 -9 -51 -13 -80 -5 -42 -4 -51 9 -51 10 0 17 11 19 27 4 35 30 41 57 14 16
-16 18 -26 11 -51 -5 -17 -5 -28 0 -25 4 3 10 0 12 -6 2 -7 15 -2 31 14 28 25
74 43 85 32 3 -3 -1 -16 -8 -30 -11 -20 -11 -29 -1 -49 8 -13 11 -28 7 -34 -8
-13 34 -58 62 -67 12 -3 22 -10 22 -15 0 -16 126 -80 158 -80 18 0 32 -4 32
-8 0 -12 128 -6 143 6 7 6 24 9 38 6 19 -5 21 -3 9 5 -8 6 -10 11 -4 11 15 0
26 28 18 42 -4 6 -12 0 -20 -14 -27 -52 -162 -62 -259 -19 -114 50 -178 113
-178 173 0 45 41 78 98 78 51 0 185 -43 201 -65 6 -8 20 -15 31 -15 30 0 98
-53 112 -88 7 -17 18 -29 25 -26 16 6 51 -36 60 -71 4 -15 9 -25 12 -22 10 9
-24 87 -52 119 -34 40 -119 108 -134 108 -5 0 -10 5 -10 11 0 6 14 9 33 7 23
-2 32 -8 31 -20 -1 -10 4 -18 10 -18 7 0 13 8 13 17 0 20 -20 43 -36 43 -16 0
-81 33 -81 41 0 17 21 19 36 5 11 -12 20 -13 33 -6 10 5 21 7 24 4 3 -3 15 4
26 15 29 29 51 17 52 -28 l0 -36 16 50 15 49 -28 23 c-16 12 -31 20 -34 17 -3
-3 3 -11 13 -18 25 -19 22 -22 -25 -23 -24 -1 -59 -5 -78 -10 -54 -15 -60 -9
-53 54 4 46 10 60 35 81 22 18 28 32 25 49 -3 14 1 23 9 23 7 0 16 5 19 10 4
6 -5 10 -19 10 -17 0 -26 -5 -26 -16z m-326 -279 c-7 -17 -20 -20 -28 -6 -7
10 3 21 20 21 8 0 11 -6 8 -15z"/>
<path d="M1895 3085 c-20 -9 -24 -14 -12 -14 9 -1 17 -3 17 -6 0 -3 -8 -18
-17 -32 -10 -15 -12 -24 -5 -19 6 4 19 22 28 39 9 18 22 35 28 39 18 13 -7 8
-39 -7z"/>
<path d="M7 3078 c18 -23 22 -58 7 -58 -8 0 -14 -4 -14 -10 0 -5 7 -7 15 -4
13 5 14 -1 9 -32 -3 -22 -10 -43 -15 -48 -5 -6 -9 -48 -8 -95 l1 -86 13 75 c8
41 19 107 26 145 7 39 14 72 15 74 2 2 14 -9 27 -24 18 -21 28 -26 46 -20 23
7 23 7 -6 22 -15 8 -37 22 -48 31 -22 19 -61 42 -71 42 -4 0 -2 -6 3 -12z"/>
<path d="M1187 3063 c-2 -13 -1 -23 2 -23 12 0 28 15 34 32 4 12 1 16 -13 15
-11 -1 -20 -11 -23 -24z"/>
<path d="M1934 3074 c-7 -3 -10 -13 -7 -22 2 -11 -13 -33 -41 -61 -38 -38 -43
-47 -35 -67 4 -13 5 -24 1 -24 -4 0 4 -6 18 -13 30 -16 38 -13 20 8 -10 12
-10 18 0 30 10 13 9 15 -11 16 -21 1 -21 2 -4 6 11 3 25 10 30 17 14 17 50 36
70 36 26 0 8 -18 -25 -25 -17 -4 -30 -11 -30 -17 0 -6 8 -8 19 -5 10 2 25 0
34 -4 9 -6 18 -5 22 1 3 5 25 7 48 4 31 -4 38 -2 27 5 -8 6 -27 11 -42 11 -19
0 -26 5 -24 18 2 11 -7 21 -25 29 -26 11 -28 15 -19 37 10 26 2 32 -26 20z"/>
<path d="M877 3043 c-12 -11 -8 -23 8 -23 8 0 15 7 15 15 0 16 -12 20 -23 8z"/>
<path d="M1690 3025 c-6 -8 -9 -18 -6 -24 3 -5 0 -12 -6 -14 -9 -4 -10 -6 -1
-6 6 -1 15 4 18 9 5 8 11 8 19 1 10 -8 11 -4 8 19 -5 33 -13 37 -32 15z"/>
<path d="M1758 3033 c-10 -2 -18 -12 -18 -21 0 -12 2 -14 8 -4 5 6 20 11 34
10 22 -2 25 -5 17 -19 -5 -10 -9 -28 -9 -40 0 -17 -4 -20 -21 -16 -16 4 -18 3
-9 -8 18 -22 40 -6 40 29 1 29 1 30 15 12 8 -11 18 -16 22 -11 5 4 3 10 -3 12
-7 2 -10 13 -7 23 4 14 -2 22 -22 30 -14 5 -27 9 -28 9 -1 -1 -10 -3 -19 -6z"/>
<path d="M620 3010 c-8 -9 -16 -24 -18 -34 -3 -18 -2 -18 13 -2 9 9 22 16 29
16 8 0 20 8 27 17 12 15 12 16 -8 11 -12 -3 -23 -3 -25 1 -2 4 -10 0 -18 -9z"/>
<path d="M550 3012 c0 -4 6 -14 13 -21 10 -10 6 -17 -18 -36 -32 -26 -32 -29
5 -40 21 -7 23 -6 12 7 -10 12 -10 18 1 27 8 6 17 8 20 4 13 -12 6 32 -7 50
-14 18 -26 22 -26 9z"/>
<path d="M485 2994 c-11 -8 -20 -18 -20 -22 0 -16 -32 -51 -40 -44 -5 4 -5 1
-1 -5 9 -17 9 -17 36 7 12 11 26 17 30 15 6 -4 22 55 16 62 0 1 -10 -5 -21
-13z"/>
<path d="M837 3003 c-11 -10 -8 -25 3 -18 6 3 10 1 10 -4 0 -13 22 -10 32 4
12 17 -30 34 -45 18z"/>
<path d="M84 2962 c-6 -4 -14 -29 -17 -57 -4 -27 -10 -68 -13 -89 -5 -28 -4
-37 4 -32 7 4 12 28 13 54 1 40 2 43 10 22 7 -20 8 -18 5 16 -2 24 2 48 10 59
22 30 15 46 -12 27z"/>
<path d="M623 2925 c-6 -14 -8 -25 -4 -25 12 0 31 23 31 37 0 21 -14 15 -27
-12z"/>
<path d="M1813 2944 c4 -4 2 -13 -5 -21 -9 -11 -7 -18 7 -31 10 -9 15 -11 11
-5 -4 7 -2 21 3 32 8 15 7 20 -6 26 -10 3 -14 3 -10 -1z"/>
<path d="M2065 2930 c3 -5 16 -10 28 -10 18 0 19 2 7 10 -20 13 -43 13 -35 0z"/>
<path d="M1627 2898 c-35 -48 -67 -115 -59 -124 4 -4 2 -4 -5 -1 -7 5 -18 -9
-28 -38 -10 -25 -24 -50 -32 -56 -8 -7 -11 -20 -7 -33 4 -12 3 -18 -1 -14 -4
4 -24 0 -45 -8 -34 -14 -42 -14 -74 0 -20 8 -36 11 -36 7 0 -5 7 -11 15 -15 8
-3 14 -16 13 -30 -1 -13 -5 -23 -9 -20 -4 2 -10 0 -13 -5 -3 -5 5 -11 19 -13
22 -5 24 -2 19 18 -9 34 3 46 29 33 12 -7 26 -17 30 -23 5 -6 7 -2 4 12 -5 20
-2 22 16 16 12 -3 29 -12 37 -20 9 -7 36 -20 60 -29 25 -9 63 -24 85 -34 79
-36 112 -43 137 -29 13 7 26 12 30 13 3 0 9 3 13 6 3 4 -12 4 -34 2 -22 -3
-42 0 -46 6 -3 7 2 11 15 11 12 0 19 4 16 8 -3 5 9 6 27 4 18 -3 29 -2 26 2
-13 13 -65 23 -84 15 -19 -7 -19 -8 -1 -8 19 -1 19 -2 2 -14 -16 -12 -25 -11
-55 0 -20 8 -44 16 -53 20 -10 3 -18 8 -18 12 0 4 -12 8 -27 9 -16 1 -30 7
-31 12 -2 6 -8 8 -12 5 -5 -3 -13 3 -19 12 -11 21 36 132 56 133 7 0 10 6 7
13 -2 7 4 22 15 34 11 11 17 24 14 27 -4 3 -2 6 4 6 6 0 14 12 18 28 9 31 14
82 9 82 -1 0 -14 -15 -27 -32z"/>
<path d="M1950 2922 c0 -16 37 -25 57 -13 17 9 16 10 -2 9 -11 0 -28 3 -37 7
-11 4 -18 3 -18 -3z"/>
<path d="M1860 2843 c14 -15 27 -30 29 -33 2 -3 1 3 -2 12 -5 14 -1 16 21 13
45 -7 56 -10 70 -18 6 -5 12 -5 12 -2 0 3 18 -13 40 -37 33 -36 40 -40 40 -22
0 20 -77 92 -93 86 -4 -1 -17 3 -28 9 -11 6 -41 13 -67 15 l-46 5 24 -28z"/>
<path d="M2025 2852 c-3 -9 1 -22 10 -31 10 -10 15 -11 15 -3 0 7 12 12 26 12
17 0 23 -4 18 -12 -6 -10 -5 -10 8 0 12 10 20 9 41 -8 14 -11 30 -20 36 -20 6
0 11 -19 11 -43 0 -24 4 -47 8 -52 5 -6 15 -37 23 -70 7 -33 18 -75 25 -94
l11 -33 7 27 c4 16 0 47 -9 75 -9 27 -17 59 -18 72 -1 13 -7 28 -13 33 -7 6
-15 32 -19 59 -7 55 -24 97 -25 61 0 -11 -4 -16 -8 -10 -29 41 -135 67 -147
37z"/>
<path d="M1825 2830 c-3 -5 0 -10 9 -10 8 0 17 -6 19 -12 4 -8 6 -9 6 -2 1 18
-26 37 -34 24z"/>
<path d="M944 2819 c-3 -6 -1 -16 5 -22 8 -8 11 -5 11 11 0 24 -5 28 -16 11z"/>
<path d="M610 2747 c14 -56 20 -64 96 -113 41 -27 74 -52 74 -56 0 -5 5 -8 10
-8 24 0 5 18 -66 65 -71 47 -104 85 -104 119 0 8 -4 17 -9 20 -5 4 -6 -8 -1
-27z"/>
<path d="M2080 2765 c0 -11 10 -14 40 -12 44 2 52 11 18 21 -38 10 -58 7 -58
-9z"/>
<path d="M70 2761 c0 -5 -8 -7 -19 -4 -12 3 -20 -2 -23 -14 -7 -26 1 -43 18
-36 7 3 11 9 8 14 -3 5 2 9 10 9 9 0 16 9 16 20 0 11 -2 20 -5 20 -3 0 -5 -4
-5 -9z"/>
<path d="M320 2755 c7 -8 16 -15 21 -15 5 0 6 7 3 15 -4 8 -13 15 -21 15 -13
0 -13 -3 -3 -15z"/>
<path d="M230 2751 c0 -5 6 -14 14 -20 12 -10 13 -8 9 8 -5 21 -23 30 -23 12z"/>
<path d="M875 2730 c11 -13 31 -35 44 -49 13 -14 28 -38 33 -53 6 -16 14 -28
18 -28 29 0 -50 119 -93 142 l-22 11 20 -23z"/>
<path d="M1021 2733 c0 -5 4 -17 9 -28 8 -18 9 -17 9 8 1 15 -3 27 -9 27 -5 0
-10 -3 -9 -7z"/>
<path d="M2126 2731 c-3 -5 -14 -7 -24 -4 -10 2 -24 -3 -31 -11 -10 -12 -10
-16 -2 -16 7 0 10 -4 7 -9 -4 -5 3 -7 14 -4 19 5 20 6 3 19 -17 12 -16 13 5 9
12 -2 27 -7 34 -11 7 -5 9 -2 5 9 -4 10 0 17 11 20 16 4 16 5 0 6 -9 0 -19 -3
-22 -8z"/>
<path d="M2107 2677 c-35 -11 -35 -27 1 -27 37 0 54 12 38 26 -7 7 -21 7 -39
1z"/>
<path d="M1208 2663 c21 -8 13 -39 -12 -51 -23 -10 -24 -9 -23 16 2 19 -3 27
-18 30 -16 2 -17 1 -5 -7 12 -9 11 -11 -9 -11 -16 0 -21 -4 -17 -15 6 -17 -5
-20 -21 -4 -8 8 -15 4 -27 -12 -28 -41 -21 -47 42 -37 31 5 67 16 80 24 21 14
26 13 53 -4 25 -15 28 -20 15 -25 -9 -4 -16 -14 -16 -23 0 -26 -25 -10 -28 19
-4 34 -18 35 -26 2 -4 -16 -11 -23 -18 -19 -6 4 -8 3 -5 -4 4 -5 17 -8 30 -4
19 5 20 3 9 -10 -11 -14 -9 -16 18 -14 17 1 35 9 40 16 7 12 11 9 20 -10 9
-22 9 -22 4 9 -5 25 -3 32 7 29 10 -4 13 -19 12 -49 -2 -36 -1 -40 7 -21 11
26 40 30 40 5 0 -15 2 -16 10 -3 8 12 14 10 38 -13 15 -15 35 -27 44 -27 9 0
18 -6 21 -12 4 -10 7 -10 18 0 11 10 10 12 -3 12 -9 0 -26 9 -39 20 -24 20
-24 20 -4 35 11 9 25 13 32 11 7 -3 10 1 6 10 -3 7 0 14 5 14 6 0 12 -18 14
-40 2 -29 6 -37 16 -32 20 13 4 68 -24 81 -20 9 -24 8 -24 -6 0 -13 -3 -14
-12 -5 -7 7 -21 12 -31 12 -16 0 -19 -5 -13 -31 5 -29 5 -30 -12 -18 -9 8 -21
20 -25 27 -4 6 -17 12 -27 12 -22 0 -39 22 -22 28 14 4 16 32 2 32 -5 0 -13
-8 -19 -17 -8 -16 -11 -14 -22 10 -11 23 -17 27 -38 22 -19 -4 -22 -3 -11 4
12 8 12 13 -4 30 -11 12 -24 21 -30 20 -6 0 -6 -3 2 -6z"/>
<path d="M2150 2640 c-16 -11 -15 -11 18 -15 12 -1 21 2 19 8 -5 15 -20 18
-37 7z"/>
<path d="M2053 2626 c1 -6 8 -17 15 -24 6 -7 12 -24 12 -37 0 -13 4 -26 8 -29
8 -5 6 33 -3 80 -4 20 -36 31 -32 10z"/>
<path d="M2100 2611 c0 -11 4 -22 9 -25 5 -3 7 -15 4 -26 -6 -21 3 -25 26 -11
8 6 24 6 38 0 33 -12 29 -2 -19 42 -49 44 -58 47 -58 20z"/>
<path d="M1734 2609 c-3 -5 6 -9 20 -9 31 0 34 6 6 13 -11 3 -23 1 -26 -4z"/>
<path d="M1986 2534 c-18 -17 -22 -69 -5 -59 5 4 19 -1 30 -11 10 -9 19 -15
20 -13 0 2 2 13 4 23 2 10 9 22 15 26 7 4 4 14 -8 28 -23 26 -35 27 -56 6z
m34 -25 c0 -17 -5 -29 -11 -27 -6 2 -10 7 -10 11 1 4 1 16 1 27 0 11 5 20 10
20 6 0 10 -14 10 -31z"/>
<path d="M1091 2531 c-30 -4 -48 -13 -59 -28 -14 -22 -13 -23 9 -23 13 0 42 5
63 10 36 8 42 6 65 -19 22 -23 29 -26 39 -15 14 15 16 25 5 23 -20 -3 -34 2
-28 11 3 6 -1 10 -9 10 -8 0 -18 9 -21 20 -3 11 -9 19 -13 18 -4 0 -27 -4 -51
-7z"/>
<path d="M2090 2506 c14 -8 28 -12 32 -10 5 3 8 -1 8 -9 0 -9 15 -14 47 -16
40 -2 45 0 34 13 -10 12 -9 14 11 9 19 -5 21 -3 11 7 -9 10 -18 11 -36 3 -17
-8 -28 -7 -42 3 -10 8 -35 14 -54 14 l-36 -1 25 -13z"/>
<path d="M1611 2487 c7 -15 16 -27 21 -27 14 0 9 16 -13 36 -21 19 -21 19 -8
-9z"/>
<path d="M1233 2487 c4 -10 2 -27 -4 -38 -11 -22 -2 -66 12 -52 14 14 14 82 0
95 -12 11 -13 10 -8 -5z"/>
<path d="M1586 2480 c4 -14 9 -49 11 -77 3 -29 9 -53 15 -53 14 0 0 98 -19
130 l-14 25 7 -25z"/>
<path d="M1775 2471 c3 -5 20 -13 37 -17 43 -9 104 -48 124 -80 10 -14 25 -49
35 -77 l17 -52 -2 106 c0 66 -5 106 -12 106 -5 0 -8 -13 -6 -27 2 -15 -2 -31
-9 -35 -8 -5 -10 -4 -5 3 4 7 2 12 -4 12 -7 0 -32 16 -56 36 -25 21 -44 31
-44 23 0 -10 -3 -10 -12 -1 -14 14 -72 16 -63 3z"/>
<path d="M1130 2445 c0 -17 4 -24 12 -19 7 4 8 3 4 -4 -4 -7 -3 -12 2 -12 8 0
22 22 22 35 0 3 -9 9 -20 15 -18 9 -20 8 -20 -15z"/>
<path d="M1096 2438 c-3 -13 -1 -27 4 -32 6 -6 10 -17 10 -25 0 -10 -7 -6 -17
11 -29 47 -100 63 -139 32 -18 -15 -18 -15 6 -10 14 2 35 8 48 11 14 5 22 3
22 -4 0 -6 -6 -11 -13 -11 -39 0 -213 -139 -204 -163 4 -9 6 -9 6 1 1 6 8 12
16 12 8 0 15 4 15 9 0 5 6 11 14 14 11 5 11 0 -1 -24 -8 -17 -13 -32 -11 -35
3 -2 43 34 88 81 86 88 110 101 110 63 0 -13 5 -30 10 -38 8 -13 10 -12 10 3
0 21 38 24 46 3 3 -8 13 -12 26 -8 16 4 19 2 13 -8 -5 -9 -4 -11 3 -6 20 12
13 33 -10 32 -20 -1 -23 4 -24 35 0 19 -4 41 -8 47 -4 7 -4 17 -1 22 3 6 2 10
-3 10 -5 0 -12 -10 -16 -22z"/>
<path d="M2196 2451 c-7 -11 22 -23 35 -15 5 3 9 9 9 15 0 12 -37 12 -44 0z"/>
<path d="M1639 2436 c6 -7 17 -31 25 -52 8 -21 15 -31 15 -21 1 27 -26 87 -40
87 -8 0 -9 -3 0 -14z"/>
<path d="M2160 2420 c0 -5 12 -10 26 -10 14 0 23 4 19 10 -3 6 -15 10 -26 10
-10 0 -19 -4 -19 -10z"/>
<path d="M1156 2404 c-19 -14 -19 -14 2 -14 13 0 22 -6 22 -15 0 -17 18 -19
39 -6 9 6 10 11 2 15 -6 4 -11 2 -11 -3 0 -20 -18 -11 -27 13 -7 22 -10 23
-27 10z"/>
<path d="M1828 2402 c8 -22 47 -72 56 -72 3 0 -7 20 -22 45 -27 45 -48 61 -34
27z"/>
<path d="M1550 2398 c0 -7 5 -20 10 -28 8 -12 10 -11 10 7 0 12 -4 25 -10 28
-5 3 -10 0 -10 -7z"/>
<path d="M2180 2375 c7 -8 24 -15 39 -15 25 1 25 1 7 15 -11 8 -29 15 -39 15
-16 0 -17 -3 -7 -15z"/>
<path d="M1821 2360 c0 -8 6 -24 14 -34 11 -15 15 -16 15 -5 0 8 -7 24 -15 35
-11 14 -14 15 -14 4z"/>
<path d="M397 2331 c4 -25 3 -32 -5 -27 -7 4 -12 4 -12 1 0 -10 59 -174 70
-195 6 -12 7 -19 0 -22 -6 -2 -1 -9 9 -15 23 -14 23 -14 -37 140 -17 42 -27
77 -24 77 4 -1 26 -34 50 -75 24 -41 45 -75 47 -75 2 0 -6 24 -18 54 -12 30
-25 53 -28 50 -4 -2 -5 6 -1 18 4 16 2 19 -8 13 -10 -6 -12 -4 -7 8 4 10 2 16
-6 14 -7 -1 -12 5 -12 13 -1 8 -6 24 -13 35 -10 17 -11 15 -5 -14z"/>
<path d="M1946 2293 c16 -53 29 -73 18 -28 -9 40 -22 75 -28 75 -2 0 2 -21 10
-47z"/>
<path d="M2230 2330 c0 -5 -7 -10 -15 -10 -8 0 -15 -4 -15 -10 0 -11 43 -14
53 -4 8 8 -3 34 -14 34 -5 0 -9 -4 -9 -10z"/>
<path d="M1765 2320 c-4 -6 -2 -17 4 -23 15 -15 25 -2 13 19 -7 12 -11 13 -17
4z"/>
<path d="M1855 2287 c-4 -21 -5 -41 -1 -44 3 -4 6 7 7 23 l1 29 17 -37 c23
-50 26 -52 26 -18 0 16 -2 26 -5 24 -2 -3 -12 10 -21 28 l-17 33 -7 -38z"/>
<path d="M458 2304 c-10 -9 16 -64 29 -64 8 0 18 -11 23 -25 12 -31 24 -33 14
-2 -9 29 -59 98 -66 91z"/>
<path d="M997 2293 c-5 -7 -5 -17 -2 -23 11 -18 -6 -32 -19 -15 -7 10 -18 14
-29 9 -22 -8 -12 -25 11 -18 9 4 2 -8 -17 -25 -31 -29 -32 -31 -11 -31 13 0
24 7 27 18 2 11 20 25 39 32 19 8 40 21 46 30 10 12 10 13 -2 3 -20 -19 -28
-16 -32 10 -2 15 -5 18 -11 10z"/>
<path d="M2237 2283 c-8 -7 11 -33 24 -33 5 0 9 9 9 20 0 19 -20 27 -33 13z"/>
<path d="M539 2266 c5 -6 24 -20 43 -30 l33 -19 -23 25 c-12 13 -20 26 -18 29
2 2 -7 5 -20 5 -18 2 -22 -1 -15 -10z"/>
<path d="M750 2247 c0 -13 6 -30 14 -36 10 -9 13 -5 12 21 -1 37 -26 52 -26
15z"/>
<path d="M2205 2240 c3 -5 16 -10 28 -9 21 0 21 1 2 9 -28 12 -37 12 -30 0z"/>
<path d="M1978 2234 c-5 -4 -8 -23 -7 -43 0 -34 1 -34 10 -11 11 27 8 66 -3
54z"/>
<path d="M1364 2208 c6 -10 18 -18 28 -18 21 0 32 -16 17 -25 -6 -4 -24 2 -40
14 l-30 22 3 -28 c3 -29 30 -52 60 -53 18 0 88 -99 88 -123 0 -7 -5 -18 -11
-24 -8 -8 -8 -13 0 -17 6 -4 11 -16 11 -27 0 -24 20 -26 21 -1 5 63 1 111 -10
123 -7 8 -21 29 -32 47 -10 18 -29 37 -42 42 -12 5 -17 9 -12 9 13 1 17 41 5
41 -5 0 -10 7 -12 17 -2 10 -13 17 -29 17 -23 1 -25 -1 -15 -16z"/>
<path d="M489 2198 c28 -71 70 -147 75 -136 3 7 4 4 1 -7 -5 -22 9 -53 18 -39
6 11 -42 164 -51 163 -20 -3 -32 3 -32 15 0 8 -4 18 -10 21 -6 4 -7 -2 -1 -17z"/>
<path d="M577 2200 c7 -28 31 -46 29 -23 -1 17 -19 43 -29 43 -3 0 -3 -9 0
-20z"/>
<path d="M2175 2210 c-8 -13 -1 -24 14 -19 6 3 7 10 2 18 -6 10 -10 10 -16 1z"/>
<path d="M2257 2209 c-9 -6 -15 -14 -12 -18 2 -5 -1 -9 -8 -8 -35 1 -46 -4
-41 -18 12 -31 81 1 81 38 0 9 -1 17 -1 17 -1 0 -9 -5 -19 -11z"/>
<path d="M576 2131 c16 -63 24 -77 34 -61 11 18 1 52 -25 84 l-23 28 14 -51z"/>
<path d="M2114 2166 c-3 -8 -4 -23 -2 -33 3 -11 6 -6 9 15 6 34 2 42 -7 18z"/>
<path d="M2293 2145 c0 -22 2 -30 4 -17 2 12 2 30 0 40 -3 9 -5 -1 -4 -23z"/>
<path d="M2187 2120 c-4 -16 0 -20 18 -20 13 0 27 6 31 13 4 6 3 9 -1 4 -5 -4
-16 0 -25 8 -16 14 -18 14 -23 -5z"/>
<path d="M1326 2122 c-8 -13 41 -107 57 -107 7 0 12 -9 12 -21 1 -11 7 -28 15
-38 34 -40 52 -57 56 -53 6 6 -21 68 -43 97 -10 14 -24 37 -32 51 -22 44 -57
83 -65 71z"/>
<path d="M1943 2064 c-6 -13 -8 -24 -4 -24 10 0 31 39 23 44 -4 2 -12 -7 -19
-20z"/>
<path d="M2116 2072 c-3 -5 8 -6 25 -4 17 3 29 0 29 -7 0 -6 16 -11 38 -11 32
1 35 2 20 13 -19 15 -104 22 -112 9z"/>
<path d="M2110 2043 c0 -5 -8 -18 -18 -31 -18 -23 -18 -23 -42 -4 -24 19 -82
42 -68 27 9 -9 -51 -75 -68 -75 -7 0 -11 -6 -9 -12 3 -7 -26 -38 -64 -68 -71
-56 -89 -83 -93 -133 -2 -23 -6 -27 -23 -23 -18 4 -17 3 4 -15 19 -16 22 -22
12 -28 -11 -7 -11 -10 -1 -16 16 -10 40 21 40 51 0 63 12 82 101 158 82 71 89
75 89 51 0 -14 7 -28 15 -31 19 -8 20 -42 0 -46 -8 -2 -62 -47 -120 -102 -75
-70 -103 -102 -96 -109 6 -6 11 -19 11 -28 0 -13 8 -17 31 -17 17 1 34 -3 37
-8 9 -13 113 -33 105 -21 -3 5 5 6 18 3 23 -6 23 -6 -1 5 -14 6 -36 16 -49 23
-18 8 -25 8 -28 -1 -5 -15 -66 14 -82 40 -14 21 -5 41 16 33 8 -3 12 -2 9 3
-3 4 18 28 46 52 28 24 60 52 70 62 10 9 20 17 22 17 10 0 53 46 58 61 4 11
-2 21 -17 29 -17 9 -25 25 -30 57 -3 25 -4 47 -1 50 3 3 19 0 35 -7 24 -10 30
-19 33 -48 l3 -37 22 47 c22 47 22 48 65 44 24 -2 58 -4 76 -5 24 -1 32 -6 32
-19 0 -10 15 -36 33 -58 46 -54 61 -84 49 -96 -7 -7 -15 0 -25 23 -8 19 -25
44 -38 56 l-24 22 3 -74 c4 -65 2 -75 -13 -75 -12 0 -16 8 -15 28 1 15 2 47 1
72 -2 69 -20 35 -23 -44 -2 -48 -7 -71 -17 -74 -11 -4 -13 10 -8 79 4 55 3 79
-3 69 -5 -8 -10 -29 -10 -46 0 -17 -3 -46 -6 -63 -6 -26 -10 -31 -28 -26 -18
5 -17 3 4 -9 29 -18 80 -21 80 -5 0 5 4 7 10 4 13 -8 60 24 60 41 0 9 10 14
28 12 49 -4 55 7 35 62 -4 8 -7 20 -9 27 -1 6 -11 22 -23 34 -12 13 -21 27
-21 32 0 4 -7 15 -15 24 -8 8 -12 20 -8 26 4 7 0 8 -11 4 -13 -5 -17 -3 -13 6
4 11 -3 13 -28 11 -19 -1 -40 -6 -46 -10 -8 -5 -9 -3 -4 6 6 10 1 12 -18 8
-15 -3 -24 -1 -21 3 3 5 0 9 -5 9 -6 0 -11 -3 -11 -7z"/>
<path d="M2090 1951 c-5 -11 -10 -31 -10 -44 0 -13 -9 -32 -20 -42 -22 -20
-17 -43 5 -25 19 16 35 4 35 -25 0 -40 18 -38 24 2 13 86 11 135 -6 144 -13 7
-20 4 -28 -10z"/>
<path d="M2000 1938 c0 -9 5 -20 11 -23 17 -11 20 0 4 21 -13 17 -14 17 -15 2z"/>
<path d="M1365 1880 l-30 -6 35 -16 c19 -8 52 -21 73 -28 20 -8 37 -21 37 -29
0 -11 3 -12 12 -3 8 8 4 18 -18 40 -38 36 -72 50 -109 42z"/>
<path d="M1347 1834 c5 -14 2 -16 -23 -10 -23 5 -18 0 21 -24 28 -16 56 -28
63 -25 7 3 10 0 7 -5 -3 -6 2 -13 11 -17 16 -6 16 -7 -2 -14 -18 -7 -18 -8 2
-8 12 -1 28 7 35 16 11 13 11 15 1 9 -10 -6 -13 -2 -10 14 2 19 -4 25 -35 36
-21 7 -43 12 -50 10 -7 -1 -9 -1 -5 1 9 6 -2 33 -13 33 -4 0 -6 -7 -2 -16z"/>
<path d="M1019 1794 c-20 -25 -17 -44 13 -91 16 -23 28 -45 28 -50 1 -13 43
-60 66 -71 17 -9 24 -7 40 11 10 12 18 25 16 30 -1 4 3 7 8 7 36 0 -51 139
-103 163 -44 21 -51 21 -68 1z m59 -29 c20 -6 92 -103 92 -125 0 -5 -10 -16
-21 -24 -21 -14 -24 -12 -75 71 -30 47 -54 87 -54 90 0 4 6 3 58 -12z"/>
<path d="M1450 1710 c0 -7 -18 -8 -50 -4 -38 5 -50 3 -50 -6 0 -8 -3 -10 -6
-7 -4 3 -16 -5 -27 -19 -11 -14 -30 -30 -43 -34 -13 -5 -24 -16 -24 -24 0 -7
-10 -16 -22 -20 -13 -3 -25 -6 -28 -7 -3 -1 -11 -10 -18 -21 -7 -10 -17 -16
-21 -13 -14 8 -5 -48 13 -85 15 -32 15 -33 0 -12 -9 12 -22 22 -29 22 -8 0
-15 5 -17 10 -3 11 -72 -33 -100 -64 -10 -10 -18 -16 -18 -13 0 3 -17 -10 -38
-31 -46 -45 -116 -94 -154 -108 -10 -3 -15 -10 -13 -15 3 -4 -4 -13 -15 -19
-18 -10 -19 -13 -5 -26 8 -9 15 -20 15 -25 0 -5 5 -9 11 -9 6 0 8 8 5 18 -5
14 11 35 58 80 35 34 69 62 75 62 18 0 -4 -34 -34 -54 l-26 -17 22 -30 c13
-19 19 -38 15 -52 -4 -15 12 -49 56 -120 34 -54 65 -100 69 -103 13 -8 -9 66
-27 93 -37 50 -63 108 -63 139 -1 16 -6 35 -13 42 -7 7 -8 12 -2 12 5 0 4 4
-3 8 -8 5 -9 13 -3 22 7 12 15 9 40 -15 31 -30 31 -30 61 -12 17 9 35 15 40
11 5 -3 9 2 9 10 0 9 5 16 10 16 6 0 28 17 48 38 37 38 68 57 88 54 6 -1 21
10 35 24 l24 27 -24 -13 c-21 -11 -26 -10 -38 6 -18 25 -17 29 12 42 16 7 23
17 19 27 -8 19 -15 19 -40 1 -20 -15 -44 -5 -44 18 0 20 47 59 55 46 10 -16
47 19 40 38 -3 8 0 12 7 9 17 -6 50 12 43 23 -5 9 50 60 66 60 5 0 9 -6 9 -14
0 -13 51 -31 79 -27 7 1 10 -2 6 -8 -3 -6 -1 -11 4 -11 6 0 11 7 11 16 0 8 5
12 10 9 6 -3 10 -14 10 -24 0 -10 7 -24 15 -31 12 -10 15 -10 15 2 0 8 -5 19
-11 25 -7 7 -1 12 20 16 50 10 107 -21 69 -36 -8 -4 -9 -6 -2 -6 6 -1 17 6 24
14 16 19 3 35 -29 38 -11 1 -21 4 -21 8 0 11 30 17 78 16 23 -1 42 1 42 6 0 8
-8 9 -70 8 -35 0 -40 2 -25 9 15 6 16 9 4 9 -9 1 -24 -8 -34 -19 -10 -11 -26
-20 -36 -20 -9 0 -19 -6 -22 -12 -3 -10 -7 -10 -20 0 -8 7 -21 12 -29 11 -30
-4 -68 2 -68 10 0 16 41 20 47 5 3 -8 9 -11 14 -8 5 3 5 13 -1 25 -11 20 -30
26 -30 9z m-301 -279 c27 -38 27 -42 -12 -68 -17 -13 -52 -41 -76 -63 -25 -22
-46 -40 -47 -40 -1 0 -12 16 -24 36 l-23 36 39 31 c22 18 55 46 74 64 19 18
38 33 42 33 4 0 16 -13 27 -29z"/>
<path d="M1680 1638 c0 -6 10 -23 23 -36 l22 -25 -27 7 -27 6 26 -40 c22 -32
30 -39 50 -34 13 4 33 0 46 -8 12 -7 38 -15 57 -16 l35 -1 -28 13 c-16 7 -33
19 -38 27 -6 10 -9 10 -9 1 0 -10 -4 -10 -20 0 -11 7 -20 18 -20 25 0 7 -7 13
-15 13 -8 0 -15 -4 -15 -10 0 -5 -5 -10 -11 -10 -18 0 -4 24 22 37 l24 13 -26
0 c-26 0 -45 23 -33 41 3 5 -4 9 -15 9 -12 0 -21 -5 -21 -12z"/>
<path d="M1368 1559 c-49 -39 -88 -77 -88 -84 0 -7 7 -21 16 -30 13 -12 14
-19 4 -30 -8 -10 -9 -15 -2 -15 6 0 14 4 17 10 3 5 36 29 73 53 37 24 76 52
86 63 11 10 22 18 25 16 3 -2 7 5 9 15 2 14 1 15 -6 4 -6 -8 -18 -11 -30 -7
-13 4 -24 2 -29 -7 -9 -15 -83 -62 -83 -53 0 11 70 75 89 81 12 4 18 14 17 30
0 14 -3 25 -6 25 -3 0 -44 -32 -92 -71z"/>
<path d="M1500 1595 c0 -8 5 -15 10 -15 6 0 10 7 10 15 0 8 -4 15 -10 15 -5 0
-10 -7 -10 -15z"/>
<path d="M1564 1593 c0 -11 -6 -17 -16 -17 -12 1 -18 -5 -18 -19 0 -19 1 -19
18 -4 22 20 58 22 69 5 4 -7 13 -26 18 -43 7 -19 17 -29 28 -29 10 1 17 -5 17
-17 0 -12 7 -19 18 -19 11 0 24 -12 31 -27 9 -19 15 -23 20 -15 9 15 60 0 62
-18 1 -5 2 -20 2 -32 1 -13 3 -25 6 -28 4 -3 14 -22 23 -42 10 -21 22 -38 28
-38 5 0 17 -14 25 -31 9 -17 19 -29 21 -26 7 7 -23 65 -47 90 -10 12 -19 29
-19 39 0 12 -4 16 -11 12 -9 -5 -10 1 -5 20 6 25 1 37 -40 94 -1 2 -8 5 -16 6
-39 7 -88 29 -88 41 0 7 -7 16 -15 19 -9 3 -15 14 -13 23 2 10 -2 17 -9 16 -7
-2 -13 2 -13 7 0 6 5 10 10 10 6 0 10 5 10 11 0 6 -8 9 -18 7 -10 -3 -27 1
-37 8 -26 19 -43 17 -41 -3z"/>
<path d="M1830 1558 c14 -7 30 -19 37 -28 7 -8 13 -10 13 -4 0 15 -19 30 -50
38 l-25 6 25 -12z"/>
<path d="M1505 1530 c-3 -5 4 -24 17 -41 l23 -31 -25 -20 c-14 -10 -49 -42
-78 -69 -29 -28 -57 -47 -63 -43 -8 5 -8 9 1 14 9 6 9 12 -1 29 -19 29 -29 26
-29 -8 0 -22 8 -34 33 -50 25 -16 33 -17 37 -7 3 8 29 33 58 56 29 23 56 49
60 58 3 9 12 23 18 30 10 9 10 20 2 45 -15 42 -39 59 -53 37z"/>
<path d="M2115 1512 c10 -11 138 -46 208 -57 20 -3 37 -10 37 -15 0 -6 8 -10
18 -10 30 0 142 -43 142 -55 0 -7 -6 -25 -14 -41 -8 -16 -35 -73 -60 -126 -24
-53 -58 -117 -75 -142 -33 -47 -38 -66 -20 -66 11 0 48 39 49 52 0 4 11 19 25
34 14 15 23 29 20 32 -2 3 2 10 9 16 8 6 16 22 18 36 1 14 18 54 35 90 18 36
33 70 33 77 0 6 5 13 11 15 7 2 7 12 1 29 -7 17 -23 30 -51 39 -23 7 -46 19
-53 27 -6 7 -19 11 -29 8 -10 -4 -35 2 -55 11 -33 16 -75 24 -131 25 -13 1
-21 5 -18 9 2 4 -16 8 -41 8 -24 1 -50 4 -57 8 -8 5 -9 4 -2 -4z"/>
<path d="M1795 1487 c4 -8 15 -17 25 -20 13 -3 17 -1 13 10 -3 7 -8 11 -11 9
-3 -3 -11 -1 -19 6 -11 8 -12 7 -8 -5z"/>
<path d="M1885 1466 c-16 -13 -35 -21 -42 -19 -7 3 -13 -1 -13 -9 0 -21 8 -27
30 -21 12 3 17 10 12 21 -5 15 -4 15 11 3 9 -7 17 -24 17 -36 0 -15 7 -25 21
-28 32 -9 17 -32 -21 -32 -18 0 -35 -5 -37 -12 -3 -8 5 -11 23 -10 23 2 32 -7
70 -68 23 -38 50 -77 58 -86 9 -9 16 -21 16 -27 0 -6 5 -14 10 -17 7 -4 8 3 4
22 -8 33 -33 75 -51 86 -7 4 -13 15 -13 23 0 8 -7 26 -16 39 -9 14 -12 25 -8
25 5 0 2 5 -6 11 -11 8 -12 12 -2 16 17 7 15 22 -7 41 -22 19 -33 68 -15 65 7
-1 10 6 7 17 -7 25 -12 25 -48 -4z"/>
<path d="M2130 1450 c0 -5 -9 -18 -20 -28 -20 -18 -19 -18 29 -3 27 9 44 19
38 23 -6 4 -15 4 -19 2 -4 -3 -8 0 -8 5 0 6 -4 11 -10 11 -5 0 -10 -4 -10 -10z"/>
<path d="M2174 1395 c24 -18 39 -20 34 -2 -3 6 -15 13 -29 15 -23 2 -23 2 -5
-13z"/>
<path d="M2394 1363 c0 -24 2 -43 3 -43 1 0 9 14 18 30 13 26 13 30 1 30 -8 0
-16 6 -19 13 -2 6 -4 -7 -3 -30z"/>
<path d="M2412 1307 c-23 -46 -42 -91 -42 -101 0 -10 -6 -16 -12 -13 -7 2 -13
9 -12 15 1 7 2 24 3 38 0 14 5 23 10 20 5 -3 9 4 10 17 0 12 3 40 6 62 4 33 3
36 -5 17 -9 -21 -11 -22 -26 -8 -17 18 -90 22 -114 6 -12 -8 -9 -10 11 -10 14
0 39 -5 55 -10 28 -10 29 -13 26 -60 -2 -29 -9 -50 -15 -50 -8 0 -8 -3 -2 -8
6 -4 18 -17 28 -28 15 -19 16 -25 5 -50 -7 -16 -17 -32 -22 -36 -5 -3 -11 -14
-12 -23 -2 -15 -1 -15 17 1 20 18 149 271 149 292 0 29 -19 6 -58 -71z"/>
<path d="M1278 1372 c-10 -2 -18 -9 -18 -15 0 -7 -4 -6 -10 3 -7 11 -10 12
-10 2 0 -8 9 -16 20 -19 11 -3 18 -9 15 -13 -3 -4 2 -10 10 -14 8 -3 12 -11
10 -18 -3 -8 1 -22 10 -33 12 -16 14 -17 9 -2 -4 11 -1 17 9 17 24 0 30 18 13
42 -9 12 -16 17 -16 10 0 -6 -5 -12 -10 -12 -7 0 -7 6 0 19 5 11 10 22 10 24
0 8 -24 13 -42 9z"/>
<path d="M1256 1260 c16 -30 32 -56 37 -58 4 -2 7 -10 7 -18 0 -8 4 -14 8 -14
4 0 21 -20 37 -45 15 -25 30 -43 32 -41 4 4 -121 202 -139 221 -6 6 3 -15 18
-45z"/>
<path d="M1445 1225 c15 -27 44 -75 64 -105 20 -30 39 -63 43 -73 5 -11 17
-21 29 -24 14 -4 19 -12 16 -24 -3 -11 -1 -22 4 -25 5 -3 9 6 9 20 0 14 5 26
10 26 6 0 5 6 -2 14 -8 8 -17 11 -24 5 -12 -10 -34 8 -34 28 0 8 -18 38 -39
67 -22 30 -37 56 -34 60 4 3 1 6 -6 6 -7 0 -10 4 -7 8 3 5 -9 22 -26 38 l-31
29 28 -50z"/>
<path d="M2585 1240 c-3 -6 1 -7 9 -4 10 4 16 1 16 -9 0 -10 8 -15 20 -14 11
1 20 5 20 9 0 4 7 8 15 8 20 0 19 -17 -2 -29 -10 -5 -14 -13 -10 -17 4 -4 16
1 27 12 17 17 18 23 7 37 -10 15 -18 16 -39 8 -18 -7 -29 -7 -33 -1 -8 13 -22
13 -30 0z"/>
<path d="M2284 1212 c7 -12 -7 -68 -25 -104 -5 -10 -9 -26 -9 -35 0 -15 4 -13
20 7 11 14 17 33 14 43 -3 9 -1 17 4 17 19 0 24 52 6 69 -9 9 -14 10 -10 3z"/>
<path d="M850 1190 c-17 -17 -18 -24 -8 -52 16 -46 64 -126 102 -169 17 -19
41 -49 54 -65 15 -19 19 -22 12 -7 -5 12 -15 25 -20 28 -16 10 -12 35 5 29 8
-4 15 -1 15 6 0 7 -8 10 -20 7 -17 -4 -31 11 -80 86 -62 93 -69 109 -47 106
28 -4 37 2 37 26 0 30 -22 33 -50 5z"/>
<path d="M1340 1208 c0 -4 11 -19 25 -34 19 -20 25 -23 25 -10 0 9 -5 16 -11
16 -7 0 -18 8 -25 18 -7 9 -14 14 -14 10z"/>
<path d="M1890 1130 c0 -10 -90 -53 -97 -46 -7 7 -50 -38 -45 -47 2 -5 -7 -21
-21 -35 -13 -15 -27 -40 -31 -55 l-7 -29 23 25 c13 14 39 44 58 68 39 48 108
101 121 93 5 -3 9 1 9 8 0 10 3 9 11 -2 9 -12 10 -12 5 3 -3 10 -6 21 -6 23 0
2 -4 4 -10 4 -5 0 -10 -4 -10 -10z"/>
<path d="M1980 1116 c0 -15 24 -28 34 -19 7 7 -13 33 -25 33 -5 0 -9 -6 -9
-14z"/>
<path d="M1770 959 c-83 -99 -97 -123 -79 -135 5 -3 9 -1 9 5 0 10 25 42 75
94 61 66 82 93 89 115 13 41 -10 22 -94 -79z"/>
<path d="M1660 982 c0 -23 -20 -32 -20 -9 0 6 -6 3 -12 -7 -8 -15 -7 -27 7
-52 16 -31 35 -37 35 -13 0 6 -4 7 -10 4 -14 -9 -13 -1 7 40 13 27 14 38 5 47
-9 9 -12 7 -12 -10z"/>
<path d="M1883 972 c-12 -15 -30 -36 -40 -47 -38 -42 -74 -95 -64 -95 6 0 11
4 11 8 0 4 24 34 53 65 30 31 52 59 49 62 -3 3 2 5 12 5 9 0 15 4 12 9 -4 5 0
12 6 14 9 4 8 6 -2 6 -8 1 -25 -12 -37 -27z"/>
<path d="M1440 977 c0 -11 -4 -15 -12 -11 -7 5 -8 3 -3 -6 6 -10 4 -12 -8 -7
-9 3 -16 3 -14 -2 1 -4 -32 -45 -73 -90 -69 -76 -106 -118 -130 -148 -5 -6
-12 -24 -15 -40 -6 -25 -5 -26 6 -8 16 25 248 279 259 283 5 2 6 -7 2 -20 -3
-13 -57 -79 -120 -148 -105 -115 -112 -125 -95 -138 16 -12 18 -10 21 12 4 29
28 41 51 24 13 -10 14 -10 4 2 -16 18 -17 34 -1 24 6 -4 8 -3 4 4 -3 6 4 18
16 26 12 9 19 16 15 16 -4 0 1 8 11 19 9 10 28 32 42 50 14 17 30 31 36 31 7
0 14 9 17 20 3 11 16 24 29 29 12 6 17 10 11 10 -7 1 -13 5 -13 11 0 5 -9 24
-20 42 -14 23 -20 27 -20 15z"/>
<path d="M1517 923 c-2 -5 6 -19 20 -33 20 -21 23 -22 17 -5 -10 25 -31 47
-37 38z"/>
<path d="M1600 811 c0 -20 -50 -71 -69 -71 -9 -1 -27 -14 -41 -30 -13 -17 -30
-30 -37 -30 -7 0 -13 -4 -13 -10 0 -5 -7 -10 -15 -10 -8 0 -15 -4 -15 -9 0 -4
-19 -29 -43 -55 -24 -25 -41 -46 -38 -46 2 0 -7 -12 -21 -27 -27 -29 -46 -73
-31 -73 5 0 28 27 52 59 53 73 215 226 240 226 6 0 10 2 9 5 -4 12 24 50 33
45 12 -8 11 6 -1 25 -8 13 -10 13 -10 1z"/>
<path d="M1737 799 c-16 -18 -16 -21 -1 -42 12 -17 15 -18 10 -4 -3 10 -1 28
5 39 15 27 7 32 -14 7z"/>
<path d="M1537 804 c-4 -4 -7 -14 -7 -23 0 -11 3 -12 11 -4 6 6 10 16 7 23 -2
6 -7 8 -11 4z"/>
<path d="M1670 754 c1 -16 28 -45 34 -36 3 5 -3 17 -14 27 -11 10 -20 14 -20
9z"/>
<path d="M1551 701 c-1 -7 -10 -21 -20 -30 -11 -9 -69 -75 -129 -146 -91 -106
-109 -133 -101 -148 12 -21 31 -13 22 10 -4 11 -3 14 6 9 6 -4 10 -4 9 1 -3 8
66 91 148 179 17 18 30 35 28 37 -2 2 9 17 24 34 21 21 27 34 21 49 -4 10 -8
13 -8 5z"/>
<path d="M1555 569 c-16 -17 -46 -39 -67 -50 -29 -15 -40 -29 -53 -69 -9 -27
-21 -52 -26 -56 -5 -3 -6 -10 -3 -16 4 -6 3 -8 -3 -5 -5 3 -17 -3 -26 -13 -9
-11 -23 -17 -32 -14 -8 4 -15 1 -15 -6 0 -6 5 -8 10 -5 6 3 10 2 10 -4 0 -6
12 -4 27 4 15 8 30 12 34 9 4 -2 13 13 19 33 21 63 80 161 80 132 0 -28 -22
-94 -35 -104 -21 -16 -28 -52 -10 -52 8 0 15 5 15 11 0 6 11 23 25 38 14 15
25 36 25 47 0 11 5 23 10 26 7 4 7 12 0 25 -15 28 -13 36 18 57 15 10 28 24
30 31 3 17 1 16 -33 -19z"/>
<path d="M1013 508 c-127 -132 -153 -161 -153 -169 0 -5 -4 -9 -8 -9 -5 0 -15
-11 -22 -25 -7 -13 -17 -22 -21 -19 -5 3 -6 -2 -3 -10 4 -11 28 8 83 67 148
157 199 217 184 217 -5 0 -32 -24 -60 -52z"/>
<path d="M1101 543 c-1 -12 -94 -126 -146 -179 -25 -25 -58 -62 -115 -131 -5
-7 -10 -18 -10 -25 0 -7 13 2 28 21 15 18 48 56 75 83 26 27 47 54 47 59 0 5
5 9 10 9 6 0 26 18 46 40 20 22 41 37 47 33 6 -3 7 -1 3 5 -4 6 0 23 9 36 9
14 15 33 12 43 -3 10 -5 13 -6 6z"/>
<path d="M1913 492 c-8 -5 -8 -12 2 -25 12 -17 13 -16 11 7 0 15 -1 26 -1 26
0 0 -5 -4 -12 -8z"/>
<path d="M1230 414 c0 -8 -4 -12 -10 -9 -5 3 -10 -1 -10 -9 0 -8 -10 -23 -22
-33 -24 -19 -68 -77 -68 -89 0 -7 5 -1 87 89 53 60 58 67 39 67 -9 0 -16 -7
-16 -16z"/>
<path d="M1250 364 c0 -14 3 -14 15 -4 8 7 15 14 15 16 0 2 -7 4 -15 4 -8 0
-15 -7 -15 -16z"/>
<path d="M1366 280 c10 -21 19 -30 22 -21 2 7 -6 23 -18 35 l-22 21 18 -35z"/>
<path d="M2026 285 c5 -20 3 -31 -8 -39 -8 -6 -17 -19 -21 -30 -7 -18 -8 -18
-28 0 -21 19 -21 19 -8 -10 12 -24 11 -30 -4 -41 -9 -7 -17 -15 -17 -19 0 -6
-50 -86 -60 -96 -8 -8 -10 -50 -2 -50 4 0 18 17 31 38 13 20 32 49 43 64 10
15 18 30 18 32 0 5 79 138 84 142 0 1 13 4 27 7 22 6 28 2 42 -26 13 -26 16
-28 16 -11 1 34 -69 78 -85 53 -3 -6 -12 -5 -21 2 -12 11 -13 8 -7 -16z"/>
<path d="M1290 284 c0 -7 6 -24 14 -38 13 -26 14 -26 19 -5 3 11 3 18 -1 15
-3 -4 -12 4 -19 16 -7 13 -12 18 -13 12z"/>
<path d="M2030 138 c-87 -140 -86 -138 -68 -138 12 0 57 67 54 82 0 4 7 13 17
20 10 8 19 22 21 33 2 13 12 21 29 23 31 4 31 5 15 33 -11 17 -10 22 4 33 9 7
13 17 9 24 -4 7 -36 -36 -81 -110z"/>
<path d="M750 204 c0 -14 3 -14 15 -4 8 7 15 14 15 16 0 2 -7 4 -15 4 -8 0
-15 -7 -15 -16z"/>
<path d="M762 164 c1 -9 9 -19 16 -22 9 -3 13 2 10 14 -1 9 -9 19 -16 22 -9 3
-13 -2 -10 -14z"/>
</g>
</svg>
